STARTFONT 2.1
FONT -Misc-Fixed-Medium-O-Normal--13-120-75-75-C-70-ISO10646-1
SIZE 13 75 75
FONTBOUNDINGBOX 7 13 0 -2

STARTPROPERTIES 25
FONTNAME_REGISTRY ""
FOUNDRY "Misc"
FAMILY_NAME "Fixed"
WEIGHT_NAME "Medium"
SLANT "O"
SETWIDTH_NAME "Normal"
ADD_STYLE_NAME ""
PIXEL_SIZE 13
POINT_SIZE 120
RESOLUTION_X 75
RESOLUTION_Y 75
SPACING "C"
AVERAGE_WIDTH 70
CHARSET_REGISTRY "ISO10646"
CHARSET_ENCODING "1"
COPYRIGHT "Public domain font.  Share and enjoy."
DESTINATION 1
_XMBDFED_INFO "Edited with xmbdfed 4.5."
CAP_HEIGHT 9
X_HEIGHT 6
WEIGHT 10
QUAD_WIDTH 7
DEFAULT_CHAR 0
FONT_DESCENT 2
FONT_ASCENT 11
ENDPROPERTIES

CHARS 831

STARTCHAR char0
ENCODING 0
SWIDTH 497 0
DWIDTH 7 0
BBX 7 13 0 -2
BITMAP
00
00
56
00
42
00
42
00
84
00
D4
00
00
ENDCHAR

STARTCHAR space
ENCODING 32
SWIDTH 497 0
DWIDTH 7 0
BBX 7 13 0 -2
BITMAP
00
00
00
00
00
00
00
00
00
00
00
00
00
ENDCHAR

STARTCHAR exclam
ENCODING 33
SWIDTH 497 0
DWIDTH 7 0
BBX 7 13 0 -2
BITMAP
00
00
10
10
10
10
20
20
20
00
20
00
00
ENDCHAR

STARTCHAR quotedbl
ENCODING 34
SWIDTH 497 0
DWIDTH 7 0
BBX 7 13 0 -2
BITMAP
00
00
28
28
28
00
00
00
00
00
00
00
00
ENDCHAR

STARTCHAR numbersign
ENCODING 35
SWIDTH 497 0
DWIDTH 7 0
BBX 7 13 0 -2
BITMAP
00
00
00
28
28
7C
28
F8
50
50
00
00
00
ENDCHAR

STARTCHAR dollar
ENCODING 36
SWIDTH 497 0
DWIDTH 7 0
BBX 7 13 0 -2
BITMAP
00
00
00
10
3C
50
38
28
F0
20
00
00
00
ENDCHAR

STARTCHAR percent
ENCODING 37
SWIDTH 497 0
DWIDTH 7 0
BBX 7 13 0 -2
BITMAP
00
00
22
52
24
08
10
20
48
94
88
00
00
ENDCHAR

STARTCHAR ampersand
ENCODING 38
SWIDTH 497 0
DWIDTH 7 0
BBX 7 13 0 -2
BITMAP
00
00
00
18
24
24
38
50
94
88
74
00
00
ENDCHAR

STARTCHAR quotesingle
ENCODING 39
SWIDTH 497 0
DWIDTH 7 0
BBX 7 13 0 -2
BITMAP
00
00
10
10
10
00
00
00
00
00
00
00
00
ENDCHAR

STARTCHAR parenleft
ENCODING 40
SWIDTH 497 0
DWIDTH 7 0
BBX 7 13 0 -2
BITMAP
00
00
08
10
20
20
40
40
20
20
10
00
00
ENDCHAR

STARTCHAR parenright
ENCODING 41
SWIDTH 497 0
DWIDTH 7 0
BBX 7 13 0 -2
BITMAP
00
00
20
10
10
08
08
10
10
20
40
00
00
ENDCHAR

STARTCHAR asterisk
ENCODING 42
SWIDTH 497 0
DWIDTH 7 0
BBX 7 13 0 -2
BITMAP
00
00
00
00
24
18
7C
30
48
00
00
00
00
ENDCHAR

STARTCHAR plus
ENCODING 43
SWIDTH 497 0
DWIDTH 7 0
BBX 7 13 0 -2
BITMAP
00
00
00
00
10
10
78
20
20
00
00
00
00
ENDCHAR

STARTCHAR comma
ENCODING 44
SWIDTH 497 0
DWIDTH 7 0
BBX 7 13 0 -2
BITMAP
00
00
00
00
00
00
00
00
00
38
30
40
00
ENDCHAR

STARTCHAR hyphen
ENCODING 45
SWIDTH 497 0
DWIDTH 7 0
BBX 7 13 0 -2
BITMAP
00
00
00
00
00
00
7C
00
00
00
00
00
00
ENDCHAR

STARTCHAR period
ENCODING 46
SWIDTH 497 0
DWIDTH 7 0
BBX 7 13 0 -2
BITMAP
00
00
00
00
00
00
00
00
00
10
38
10
00
ENDCHAR

STARTCHAR slash
ENCODING 47
SWIDTH 497 0
DWIDTH 7 0
BBX 7 13 0 -2
BITMAP
00
00
04
04
08
10
10
20
40
80
80
00
00
ENDCHAR

STARTCHAR zero
ENCODING 48
SWIDTH 497 0
DWIDTH 7 0
BBX 7 13 0 -2
BITMAP
00
00
18
24
42
42
42
84
84
48
30
00
00
ENDCHAR

STARTCHAR one
ENCODING 49
SWIDTH 497 0
DWIDTH 7 0
BBX 7 13 0 -2
BITMAP
00
00
08
18
28
08
08
10
10
10
7C
00
00
ENDCHAR

STARTCHAR two
ENCODING 50
SWIDTH 497 0
DWIDTH 7 0
BBX 7 13 0 -2
BITMAP
00
00
3C
42
42
02
0C
30
40
80
FC
00
00
ENDCHAR

STARTCHAR three
ENCODING 51
SWIDTH 497 0
DWIDTH 7 0
BBX 7 13 0 -2
BITMAP
00
00
7E
02
04
08
18
04
04
84
78
00
00
ENDCHAR

STARTCHAR four
ENCODING 52
SWIDTH 497 0
DWIDTH 7 0
BBX 7 13 0 -2
BITMAP
00
00
04
0C
14
24
48
88
FC
08
08
00
00
ENDCHAR

STARTCHAR five
ENCODING 53
SWIDTH 497 0
DWIDTH 7 0
BBX 7 13 0 -2
BITMAP
00
00
3E
20
20
5C
62
02
04
84
78
00
00
ENDCHAR

STARTCHAR six
ENCODING 54
SWIDTH 497 0
DWIDTH 7 0
BBX 7 13 0 -2
BITMAP
00
00
1C
20
40
40
78
84
84
84
78
00
00
ENDCHAR

STARTCHAR seven
ENCODING 55
SWIDTH 497 0
DWIDTH 7 0
BBX 7 13 0 -2
BITMAP
00
00
FC
04
08
10
20
40
40
80
80
00
00
ENDCHAR

STARTCHAR eight
ENCODING 56
SWIDTH 497 0
DWIDTH 7 0
BBX 7 13 0 -2
BITMAP
00
00
3C
42
42
42
7C
84
84
84
78
00
00
ENDCHAR

STARTCHAR nine
ENCODING 57
SWIDTH 497 0
DWIDTH 7 0
BBX 7 13 0 -2
BITMAP
00
00
78
84
84
8C
74
08
08
10
E0
00
00
ENDCHAR

STARTCHAR colon
ENCODING 58
SWIDTH 497 0
DWIDTH 7 0
BBX 7 13 0 -2
BITMAP
00
00
00
00
10
38
10
00
00
20
70
20
00
ENDCHAR

STARTCHAR semicolon
ENCODING 59
SWIDTH 497 0
DWIDTH 7 0
BBX 7 13 0 -2
BITMAP
00
00
00
00
08
1C
08
00
00
38
30
40
00
ENDCHAR

STARTCHAR less
ENCODING 60
SWIDTH 497 0
DWIDTH 7 0
BBX 7 13 0 -2
BITMAP
00
00
04
08
10
20
40
40
20
10
08
00
00
ENDCHAR

STARTCHAR equal
ENCODING 61
SWIDTH 497 0
DWIDTH 7 0
BBX 7 13 0 -2
BITMAP
00
00
00
00
00
7E
00
00
FC
00
00
00
00
ENDCHAR

STARTCHAR greater
ENCODING 62
SWIDTH 497 0
DWIDTH 7 0
BBX 7 13 0 -2
BITMAP
00
00
20
10
08
04
04
08
10
20
40
00
00
ENDCHAR

STARTCHAR question
ENCODING 63
SWIDTH 497 0
DWIDTH 7 0
BBX 7 13 0 -2
BITMAP
00
00
78
84
84
08
10
20
20
00
20
00
00
ENDCHAR

STARTCHAR at
ENCODING 64
SWIDTH 497 0
DWIDTH 7 0
BBX 7 13 0 -2
BITMAP
00
00
3C
42
42
4E
52
AC
94
80
78
00
00
ENDCHAR

STARTCHAR A
ENCODING 65
SWIDTH 497 0
DWIDTH 7 0
BBX 7 13 0 -2
BITMAP
00
00
18
24
42
42
42
7C
84
84
84
00
00
ENDCHAR

STARTCHAR B
ENCODING 66
SWIDTH 497 0
DWIDTH 7 0
BBX 7 13 0 -2
BITMAP
00
00
7C
22
22
22
3C
44
44
44
F8
00
00
ENDCHAR

STARTCHAR C
ENCODING 67
SWIDTH 497 0
DWIDTH 7 0
BBX 7 13 0 -2
BITMAP
00
00
3C
42
40
40
40
80
80
84
78
00
00
ENDCHAR

STARTCHAR D
ENCODING 68
SWIDTH 497 0
DWIDTH 7 0
BBX 7 13 0 -2
BITMAP
00
00
7C
22
22
22
22
44
44
44
F8
00
00
ENDCHAR

STARTCHAR E
ENCODING 69
SWIDTH 497 0
DWIDTH 7 0
BBX 7 13 0 -2
BITMAP
00
00
7E
40
40
40
78
80
80
80
FC
00
00
ENDCHAR

STARTCHAR F
ENCODING 70
SWIDTH 497 0
DWIDTH 7 0
BBX 7 13 0 -2
BITMAP
00
00
7E
40
40
40
78
80
80
80
80
00
00
ENDCHAR

STARTCHAR G
ENCODING 71
SWIDTH 497 0
DWIDTH 7 0
BBX 7 13 0 -2
BITMAP
00
00
3C
42
40
40
40
9C
84
8C
74
00
00
ENDCHAR

STARTCHAR H
ENCODING 72
SWIDTH 497 0
DWIDTH 7 0
BBX 7 13 0 -2
BITMAP
00
00
42
42
42
42
7C
84
84
84
84
00
00
ENDCHAR

STARTCHAR I
ENCODING 73
SWIDTH 497 0
DWIDTH 7 0
BBX 7 13 0 -2
BITMAP
00
00
7C
10
10
10
10
20
20
20
F8
00
00
ENDCHAR

STARTCHAR J
ENCODING 74
SWIDTH 497 0
DWIDTH 7 0
BBX 7 13 0 -2
BITMAP
00
00
0E
04
04
04
04
08
08
88
70
00
00
ENDCHAR

STARTCHAR K
ENCODING 75
SWIDTH 497 0
DWIDTH 7 0
BBX 7 13 0 -2
BITMAP
00
00
42
44
48
50
60
A0
90
88
84
00
00
ENDCHAR

STARTCHAR L
ENCODING 76
SWIDTH 497 0
DWIDTH 7 0
BBX 7 13 0 -2
BITMAP
00
00
40
40
40
40
40
80
80
80
FC
00
00
ENDCHAR

STARTCHAR M
ENCODING 77
SWIDTH 497 0
DWIDTH 7 0
BBX 7 13 0 -2
BITMAP
00
00
42
66
66
5A
5A
84
84
84
84
00
00
ENDCHAR

STARTCHAR N
ENCODING 78
SWIDTH 497 0
DWIDTH 7 0
BBX 7 13 0 -2
BITMAP
00
00
42
42
62
52
4A
8C
84
84
84
00
00
ENDCHAR

STARTCHAR O
ENCODING 79
SWIDTH 497 0
DWIDTH 7 0
BBX 7 13 0 -2
BITMAP
00
00
3C
42
42
42
42
84
84
84
78
00
00
ENDCHAR

STARTCHAR P
ENCODING 80
SWIDTH 497 0
DWIDTH 7 0
BBX 7 13 0 -2
BITMAP
00
00
7C
42
42
42
7C
80
80
80
80
00
00
ENDCHAR

STARTCHAR Q
ENCODING 81
SWIDTH 497 0
DWIDTH 7 0
BBX 7 13 0 -2
BITMAP
00
00
3C
42
42
42
42
84
A4
94
78
04
00
ENDCHAR

STARTCHAR R
ENCODING 82
SWIDTH 497 0
DWIDTH 7 0
BBX 7 13 0 -2
BITMAP
00
00
7C
42
42
42
7C
A0
90
88
84
00
00
ENDCHAR

STARTCHAR S
ENCODING 83
SWIDTH 497 0
DWIDTH 7 0
BBX 7 13 0 -2
BITMAP
00
00
3C
42
40
40
38
04
04
84
78
00
00
ENDCHAR

STARTCHAR T
ENCODING 84
SWIDTH 497 0
DWIDTH 7 0
BBX 7 13 0 -2
BITMAP
00
00
7C
10
10
10
10
20
20
20
20
00
00
ENDCHAR

STARTCHAR U
ENCODING 85
SWIDTH 497 0
DWIDTH 7 0
BBX 7 13 0 -2
BITMAP
00
00
42
42
42
42
42
84
84
84
78
00
00
ENDCHAR

STARTCHAR V
ENCODING 86
SWIDTH 497 0
DWIDTH 7 0
BBX 7 13 0 -2
BITMAP
00
00
84
84
88
88
50
50
60
60
60
00
00
ENDCHAR

STARTCHAR W
ENCODING 87
SWIDTH 497 0
DWIDTH 7 0
BBX 7 13 0 -2
BITMAP
00
00
42
42
42
42
5A
B4
CC
CC
84
00
00
ENDCHAR

STARTCHAR X
ENCODING 88
SWIDTH 497 0
DWIDTH 7 0
BBX 7 13 0 -2
BITMAP
00
00
42
44
24
28
10
28
48
44
84
00
00
ENDCHAR

STARTCHAR Y
ENCODING 89
SWIDTH 497 0
DWIDTH 7 0
BBX 7 13 0 -2
BITMAP
00
00
44
44
28
28
10
10
20
20
20
00
00
ENDCHAR

STARTCHAR Z
ENCODING 90
SWIDTH 497 0
DWIDTH 7 0
BBX 7 13 0 -2
BITMAP
00
00
7E
02
04
08
10
20
40
80
FC
00
00
ENDCHAR

STARTCHAR bracketleft
ENCODING 91
SWIDTH 497 0
DWIDTH 7 0
BBX 7 13 0 -2
BITMAP
00
3C
20
20
20
20
20
40
40
40
40
78
00
ENDCHAR

STARTCHAR backslash
ENCODING 92
SWIDTH 497 0
DWIDTH 7 0
BBX 7 13 0 -2
BITMAP
00
00
40
40
20
20
10
10
10
08
08
00
00
ENDCHAR

STARTCHAR bracketright
ENCODING 93
SWIDTH 497 0
DWIDTH 7 0
BBX 7 13 0 -2
BITMAP
00
3C
04
04
04
04
04
08
08
08
08
78
00
ENDCHAR

STARTCHAR asciicircum
ENCODING 94
SWIDTH 497 0
DWIDTH 7 0
BBX 7 13 0 -2
BITMAP
00
00
10
28
44
00
00
00
00
00
00
00
00
ENDCHAR

STARTCHAR underscore
ENCODING 95
SWIDTH 497 0
DWIDTH 7 0
BBX 7 13 0 -2
BITMAP
00
00
00
00
00
00
00
00
00
00
00
FC
00
ENDCHAR

STARTCHAR grave
ENCODING 96
SWIDTH 497 0
DWIDTH 7 0
BBX 7 13 0 -2
BITMAP
00
20
10
00
00
00
00
00
00
00
00
00
00
ENDCHAR

STARTCHAR a
ENCODING 97
SWIDTH 497 0
DWIDTH 7 0
BBX 7 13 0 -2
BITMAP
00
00
00
00
00
3C
02
7C
84
8C
74
00
00
ENDCHAR

STARTCHAR b
ENCODING 98
SWIDTH 497 0
DWIDTH 7 0
BBX 7 13 0 -2
BITMAP
00
00
40
40
40
5C
62
42
84
C4
B8
00
00
ENDCHAR

STARTCHAR c
ENCODING 99
SWIDTH 497 0
DWIDTH 7 0
BBX 7 13 0 -2
BITMAP
00
00
00
00
00
3C
42
80
80
84
78
00
00
ENDCHAR

STARTCHAR d
ENCODING 100
SWIDTH 497 0
DWIDTH 7 0
BBX 7 13 0 -2
BITMAP
00
00
02
02
02
3A
44
84
84
8C
74
00
00
ENDCHAR

STARTCHAR e
ENCODING 101
SWIDTH 497 0
DWIDTH 7 0
BBX 7 13 0 -2
BITMAP
00
00
00
00
00
3C
42
7C
80
84
78
00
00
ENDCHAR

STARTCHAR f
ENCODING 102
SWIDTH 497 0
DWIDTH 7 0
BBX 7 13 0 -2
BITMAP
00
00
38
44
40
40
F0
40
80
80
80
00
00
ENDCHAR

STARTCHAR g
ENCODING 103
SWIDTH 497 0
DWIDTH 7 0
BBX 7 13 0 -2
BITMAP
00
00
00
00
00
3A
44
88
70
80
78
84
78
ENDCHAR

STARTCHAR h
ENCODING 104
SWIDTH 497 0
DWIDTH 7 0
BBX 7 13 0 -2
BITMAP
00
00
20
20
40
5C
62
42
84
84
84
00
00
ENDCHAR

STARTCHAR i
ENCODING 105
SWIDTH 497 0
DWIDTH 7 0
BBX 7 13 0 -2
BITMAP
00
00
00
08
00
18
08
08
10
10
7C
00
00
ENDCHAR

STARTCHAR j
ENCODING 106
SWIDTH 497 0
DWIDTH 7 0
BBX 7 13 0 -2
BITMAP
00
00
00
04
00
0C
04
04
08
08
88
88
70
ENDCHAR

STARTCHAR k
ENCODING 107
SWIDTH 497 0
DWIDTH 7 0
BBX 7 13 0 -2
BITMAP
00
00
40
40
40
44
58
60
90
88
84
00
00
ENDCHAR

STARTCHAR l
ENCODING 108
SWIDTH 497 0
DWIDTH 7 0
BBX 7 13 0 -2
BITMAP
00
00
18
08
08
08
08
10
10
10
7C
00
00
ENDCHAR

STARTCHAR m
ENCODING 109
SWIDTH 497 0
DWIDTH 7 0
BBX 7 13 0 -2
BITMAP
00
00
00
00
00
68
54
54
A8
A8
88
00
00
ENDCHAR

STARTCHAR n
ENCODING 110
SWIDTH 497 0
DWIDTH 7 0
BBX 7 13 0 -2
BITMAP
00
00
00
00
00
5C
62
42
84
84
84
00
00
ENDCHAR

STARTCHAR o
ENCODING 111
SWIDTH 497 0
DWIDTH 7 0
BBX 7 13 0 -2
BITMAP
00
00
00
00
00
3C
42
42
84
84
78
00
00
ENDCHAR

STARTCHAR p
ENCODING 112
SWIDTH 497 0
DWIDTH 7 0
BBX 7 13 0 -2
BITMAP
00
00
00
00
00
5C
62
42
C4
B8
80
80
80
ENDCHAR

STARTCHAR q
ENCODING 113
SWIDTH 497 0
DWIDTH 7 0
BBX 7 13 0 -2
BITMAP
00
00
00
00
00
3A
46
82
8C
74
04
04
04
ENDCHAR

STARTCHAR r
ENCODING 114
SWIDTH 497 0
DWIDTH 7 0
BBX 7 13 0 -2
BITMAP
00
00
00
00
00
B8
44
40
80
80
80
00
00
ENDCHAR

STARTCHAR s
ENCODING 115
SWIDTH 497 0
DWIDTH 7 0
BBX 7 13 0 -2
BITMAP
00
00
00
00
00
3C
42
20
18
84
78
00
00
ENDCHAR

STARTCHAR t
ENCODING 116
SWIDTH 497 0
DWIDTH 7 0
BBX 7 13 0 -2
BITMAP
00
00
00
20
20
78
20
40
40
44
38
00
00
ENDCHAR

STARTCHAR u
ENCODING 117
SWIDTH 497 0
DWIDTH 7 0
BBX 7 13 0 -2
BITMAP
00
00
00
00
00
42
42
42
84
8C
74
00
00
ENDCHAR

STARTCHAR v
ENCODING 118
SWIDTH 497 0
DWIDTH 7 0
BBX 7 13 0 -2
BITMAP
00
00
00
00
00
44
44
48
48
50
20
00
00
ENDCHAR

STARTCHAR w
ENCODING 119
SWIDTH 497 0
DWIDTH 7 0
BBX 7 13 0 -2
BITMAP
00
00
00
00
00
44
44
54
A8
A8
50
00
00
ENDCHAR

STARTCHAR x
ENCODING 120
SWIDTH 497 0
DWIDTH 7 0
BBX 7 13 0 -2
BITMAP
00
00
00
00
00
42
24
18
30
48
84
00
00
ENDCHAR

STARTCHAR y
ENCODING 121
SWIDTH 497 0
DWIDTH 7 0
BBX 7 13 0 -2
BITMAP
00
00
00
00
00
42
42
84
8C
74
04
84
78
ENDCHAR

STARTCHAR z
ENCODING 122
SWIDTH 497 0
DWIDTH 7 0
BBX 7 13 0 -2
BITMAP
00
00
00
00
00
7E
04
18
20
40
FC
00
00
ENDCHAR

STARTCHAR braceleft
ENCODING 123
SWIDTH 497 0
DWIDTH 7 0
BBX 7 13 0 -2
BITMAP
00
1C
20
20
20
10
60
20
40
40
40
38
00
ENDCHAR

STARTCHAR bar
ENCODING 124
SWIDTH 497 0
DWIDTH 7 0
BBX 7 13 0 -2
BITMAP
00
00
10
10
10
10
10
20
20
20
20
00
00
ENDCHAR

STARTCHAR braceright
ENCODING 125
SWIDTH 497 0
DWIDTH 7 0
BBX 7 13 0 -2
BITMAP
00
70
08
08
08
10
1C
20
10
10
10
E0
00
ENDCHAR

STARTCHAR asciitilde
ENCODING 126
SWIDTH 497 0
DWIDTH 7 0
BBX 7 13 0 -2
BITMAP
00
00
24
54
48
00
00
00
00
00
00
00
00
ENDCHAR

STARTCHAR space
ENCODING 160
SWIDTH 497 0
DWIDTH 7 0
BBX 7 13 0 -2
BITMAP
00
00
00
00
00
00
00
00
00
00
00
00
00
ENDCHAR

STARTCHAR exclamdown
ENCODING 161
SWIDTH 497 0
DWIDTH 7 0
BBX 7 13 0 -2
BITMAP
00
00
10
00
10
10
10
20
20
20
20
00
00
ENDCHAR

STARTCHAR cent
ENCODING 162
SWIDTH 497 0
DWIDTH 7 0
BBX 7 13 0 -2
BITMAP
00
00
10
38
54
50
A0
A8
70
20
00
00
00
ENDCHAR

STARTCHAR sterling
ENCODING 163
SWIDTH 497 0
DWIDTH 7 0
BBX 7 13 0 -2
BITMAP
00
00
1C
22
20
20
70
20
40
44
B8
00
00
ENDCHAR

STARTCHAR currency
ENCODING 164
SWIDTH 497 0
DWIDTH 7 0
BBX 7 13 0 -2
BITMAP
00
00
00
00
42
3C
24
48
78
84
00
00
00
ENDCHAR

STARTCHAR yen
ENCODING 165
SWIDTH 497 0
DWIDTH 7 0
BBX 7 13 0 -2
BITMAP
00
00
44
44
28
28
7C
10
F8
20
20
00
00
ENDCHAR

STARTCHAR brokenbar
ENCODING 166
SWIDTH 497 0
DWIDTH 7 0
BBX 7 13 0 -2
BITMAP
00
00
10
10
10
10
00
20
20
20
20
00
00
ENDCHAR

STARTCHAR section
ENCODING 167
SWIDTH 497 0
DWIDTH 7 0
BBX 7 13 0 -2
BITMAP
00
18
24
20
30
48
48
30
10
90
60
00
00
ENDCHAR

STARTCHAR dieresis
ENCODING 168
SWIDTH 497 0
DWIDTH 7 0
BBX 7 13 0 -2
BITMAP
00
00
48
48
00
00
00
00
00
00
00
00
00
ENDCHAR

STARTCHAR copyright
ENCODING 169
SWIDTH 497 0
DWIDTH 7 0
BBX 7 13 0 -2
BITMAP
00
00
3C
42
5A
52
52
A4
B4
84
78
00
00
ENDCHAR

STARTCHAR ordfeminine
ENCODING 170
SWIDTH 497 0
DWIDTH 7 0
BBX 7 13 0 -2
BITMAP
00
00
38
04
3C
44
3C
00
F8
00
00
00
00
ENDCHAR

STARTCHAR guillemotleft
ENCODING 171
SWIDTH 497 0
DWIDTH 7 0
BBX 7 13 0 -2
BITMAP
00
00
00
14
28
50
A0
A0
50
28
00
00
00
ENDCHAR

STARTCHAR logicalnot
ENCODING 172
SWIDTH 497 0
DWIDTH 7 0
BBX 7 13 0 -2
BITMAP
00
00
00
00
00
00
7C
08
08
00
00
00
00
ENDCHAR

STARTCHAR hyphen
ENCODING 173
SWIDTH 497 0
DWIDTH 7 0
BBX 7 13 0 -2
BITMAP
00
00
00
00
00
00
78
00
00
00
00
00
00
ENDCHAR

STARTCHAR registered
ENCODING 174
SWIDTH 497 0
DWIDTH 7 0
BBX 7 13 0 -2
BITMAP
00
00
3C
42
5A
56
AC
B4
AC
84
78
00
00
ENDCHAR

STARTCHAR macron
ENCODING 175
SWIDTH 497 0
DWIDTH 7 0
BBX 7 13 0 -2
BITMAP
00
00
7C
00
00
00
00
00
00
00
00
00
00
ENDCHAR

STARTCHAR degree
ENCODING 176
SWIDTH 497 0
DWIDTH 7 0
BBX 7 13 0 -2
BITMAP
00
00
30
48
48
30
00
00
00
00
00
00
00
ENDCHAR

STARTCHAR plusminus
ENCODING 177
SWIDTH 497 0
DWIDTH 7 0
BBX 7 13 0 -2
BITMAP
00
00
00
08
08
3C
10
10
00
7C
00
00
00
ENDCHAR

STARTCHAR twosuperior
ENCODING 178
SWIDTH 497 0
DWIDTH 7 0
BBX 7 13 0 -2
BITMAP
00
10
28
08
30
40
70
00
00
00
00
00
00
ENDCHAR

STARTCHAR threesuperior
ENCODING 179
SWIDTH 497 0
DWIDTH 7 0
BBX 7 13 0 -2
BITMAP
00
30
08
30
10
50
20
00
00
00
00
00
00
ENDCHAR

STARTCHAR acute
ENCODING 180
SWIDTH 497 0
DWIDTH 7 0
BBX 7 13 0 -2
BITMAP
00
10
20
00
00
00
00
00
00
00
00
00
00
ENDCHAR

STARTCHAR mu
ENCODING 181
SWIDTH 497 0
DWIDTH 7 0
BBX 7 13 0 -2
BITMAP
00
00
00
00
00
42
42
42
84
CC
B4
80
00
ENDCHAR

STARTCHAR paragraph
ENCODING 182
SWIDTH 497 0
DWIDTH 7 0
BBX 7 13 0 -2
BITMAP
00
00
7C
E8
E8
E8
28
50
50
50
50
00
00
ENDCHAR

STARTCHAR periodcentered
ENCODING 183
SWIDTH 497 0
DWIDTH 7 0
BBX 7 13 0 -2
BITMAP
00
00
00
00
00
00
30
00
00
00
00
00
00
ENDCHAR

STARTCHAR cedilla
ENCODING 184
SWIDTH 497 0
DWIDTH 7 0
BBX 7 13 0 -2
BITMAP
00
00
00
00
00
00
00
00
00
00
00
10
20
ENDCHAR

STARTCHAR onesuperior
ENCODING 185
SWIDTH 497 0
DWIDTH 7 0
BBX 7 13 0 -2
BITMAP
00
08
18
08
10
10
38
00
00
00
00
00
00
ENDCHAR

STARTCHAR ordmasculine
ENCODING 186
SWIDTH 497 0
DWIDTH 7 0
BBX 7 13 0 -2
BITMAP
00
00
18
24
24
18
00
78
00
00
00
00
00
ENDCHAR

STARTCHAR guillemotright
ENCODING 187
SWIDTH 497 0
DWIDTH 7 0
BBX 7 13 0 -2
BITMAP
00
00
00
50
28
14
14
28
50
A0
00
00
00
ENDCHAR

STARTCHAR onequarter
ENCODING 188
SWIDTH 497 0
DWIDTH 7 0
BBX 7 13 0 -2
BITMAP
00
20
60
20
40
44
EC
14
28
38
08
00
00
ENDCHAR

STARTCHAR onehalf
ENCODING 189
SWIDTH 497 0
DWIDTH 7 0
BBX 7 13 0 -2
BITMAP
00
20
60
20
40
48
F4
04
18
20
38
00
00
ENDCHAR

STARTCHAR threequarters
ENCODING 190
SWIDTH 497 0
DWIDTH 7 0
BBX 7 13 0 -2
BITMAP
00
60
10
60
20
A4
4C
14
28
38
08
00
00
ENDCHAR

STARTCHAR questiondown
ENCODING 191
SWIDTH 497 0
DWIDTH 7 0
BBX 7 13 0 -2
BITMAP
00
00
10
00
10
10
20
40
84
84
78
00
00
ENDCHAR

STARTCHAR Agrave
ENCODING 192
SWIDTH 497 0
DWIDTH 7 0
BBX 7 13 0 -2
BITMAP
00
10
08
00
18
24
42
42
7C
84
84
00
00
ENDCHAR

STARTCHAR Aacute
ENCODING 193
SWIDTH 497 0
DWIDTH 7 0
BBX 7 13 0 -2
BITMAP
00
08
10
00
18
24
42
42
7C
84
84
00
00
ENDCHAR

STARTCHAR Acircumflex
ENCODING 194
SWIDTH 497 0
DWIDTH 7 0
BBX 7 13 0 -2
BITMAP
00
18
24
00
18
24
42
42
7C
84
84
00
00
ENDCHAR

STARTCHAR Atilde
ENCODING 195
SWIDTH 497 0
DWIDTH 7 0
BBX 7 13 0 -2
BITMAP
00
32
4C
00
18
24
42
42
7C
84
84
00
00
ENDCHAR

STARTCHAR Adieresis
ENCODING 196
SWIDTH 497 0
DWIDTH 7 0
BBX 7 13 0 -2
BITMAP
00
24
24
00
18
24
42
42
7C
84
84
00
00
ENDCHAR

STARTCHAR Aring
ENCODING 197
SWIDTH 497 0
DWIDTH 7 0
BBX 7 13 0 -2
BITMAP
00
18
24
18
18
24
42
42
7C
84
84
00
00
ENDCHAR

STARTCHAR AE
ENCODING 198
SWIDTH 497 0
DWIDTH 7 0
BBX 7 13 0 -2
BITMAP
00
00
2E
50
50
50
7C
A0
A0
A0
BC
00
00
ENDCHAR

STARTCHAR Ccedilla
ENCODING 199
SWIDTH 497 0
DWIDTH 7 0
BBX 7 13 0 -2
BITMAP
00
00
3C
42
40
40
40
80
80
84
78
10
20
ENDCHAR

STARTCHAR Egrave
ENCODING 200
SWIDTH 497 0
DWIDTH 7 0
BBX 7 13 0 -2
BITMAP
00
10
08
00
7E
40
40
70
80
80
FC
00
00
ENDCHAR

STARTCHAR Eacute
ENCODING 201
SWIDTH 497 0
DWIDTH 7 0
BBX 7 13 0 -2
BITMAP
00
08
10
00
7E
40
40
70
80
80
FC
00
00
ENDCHAR

STARTCHAR Ecircumflex
ENCODING 202
SWIDTH 497 0
DWIDTH 7 0
BBX 7 13 0 -2
BITMAP
00
18
24
00
7E
40
40
70
80
80
FC
00
00
ENDCHAR

STARTCHAR Edieresis
ENCODING 203
SWIDTH 497 0
DWIDTH 7 0
BBX 7 13 0 -2
BITMAP
00
24
24
00
7E
40
40
70
80
80
FC
00
00
ENDCHAR

STARTCHAR Igrave
ENCODING 204
SWIDTH 497 0
DWIDTH 7 0
BBX 7 13 0 -2
BITMAP
00
20
10
00
7C
10
10
20
20
20
F8
00
00
ENDCHAR

STARTCHAR Iacute
ENCODING 205
SWIDTH 497 0
DWIDTH 7 0
BBX 7 13 0 -2
BITMAP
00
10
20
00
7C
10
10
20
20
20
F8
00
00
ENDCHAR

STARTCHAR Icircumflex
ENCODING 206
SWIDTH 497 0
DWIDTH 7 0
BBX 7 13 0 -2
BITMAP
00
10
28
00
7C
10
10
20
20
20
F8
00
00
ENDCHAR

STARTCHAR Idieresis
ENCODING 207
SWIDTH 497 0
DWIDTH 7 0
BBX 7 13 0 -2
BITMAP
00
44
44
00
7C
10
10
20
20
20
F8
00
00
ENDCHAR

STARTCHAR Eth
ENCODING 208
SWIDTH 497 0
DWIDTH 7 0
BBX 7 13 0 -2
BITMAP
00
00
7C
22
22
22
F2
44
44
44
F8
00
00
ENDCHAR

STARTCHAR Ntilde
ENCODING 209
SWIDTH 497 0
DWIDTH 7 0
BBX 7 13 0 -2
BITMAP
00
32
4C
00
42
62
52
52
8C
8C
84
00
00
ENDCHAR

STARTCHAR Ograve
ENCODING 210
SWIDTH 497 0
DWIDTH 7 0
BBX 7 13 0 -2
BITMAP
00
10
08
00
3C
42
42
84
84
84
78
00
00
ENDCHAR

STARTCHAR Oacute
ENCODING 211
SWIDTH 497 0
DWIDTH 7 0
BBX 7 13 0 -2
BITMAP
00
08
10
00
3C
42
42
84
84
84
78
00
00
ENDCHAR

STARTCHAR Ocircumflex
ENCODING 212
SWIDTH 497 0
DWIDTH 7 0
BBX 7 13 0 -2
BITMAP
00
18
24
00
3C
42
42
84
84
84
78
00
00
ENDCHAR

STARTCHAR Otilde
ENCODING 213
SWIDTH 497 0
DWIDTH 7 0
BBX 7 13 0 -2
BITMAP
00
32
4C
00
3C
42
42
84
84
84
78
00
00
ENDCHAR

STARTCHAR Odieresis
ENCODING 214
SWIDTH 497 0
DWIDTH 7 0
BBX 7 13 0 -2
BITMAP
00
24
24
00
3C
42
42
84
84
84
78
00
00
ENDCHAR

STARTCHAR multiply
ENCODING 215
SWIDTH 497 0
DWIDTH 7 0
BBX 7 13 0 -2
BITMAP
00
00
00
00
42
24
18
30
48
84
00
00
00
ENDCHAR

STARTCHAR Oslash
ENCODING 216
SWIDTH 497 0
DWIDTH 7 0
BBX 7 13 0 -2
BITMAP
00
02
3C
46
4A
4A
52
A4
A4
C4
78
80
00
ENDCHAR

STARTCHAR Ugrave
ENCODING 217
SWIDTH 497 0
DWIDTH 7 0
BBX 7 13 0 -2
BITMAP
00
10
08
00
42
42
42
84
84
84
78
00
00
ENDCHAR

STARTCHAR Uacute
ENCODING 218
SWIDTH 497 0
DWIDTH 7 0
BBX 7 13 0 -2
BITMAP
00
08
10
00
42
42
42
84
84
84
78
00
00
ENDCHAR

STARTCHAR Ucircumflex
ENCODING 219
SWIDTH 497 0
DWIDTH 7 0
BBX 7 13 0 -2
BITMAP
00
18
24
00
42
42
42
84
84
84
78
00
00
ENDCHAR

STARTCHAR Udieresis
ENCODING 220
SWIDTH 497 0
DWIDTH 7 0
BBX 7 13 0 -2
BITMAP
00
24
24
00
42
42
42
84
84
84
78
00
00
ENDCHAR

STARTCHAR Yacute
ENCODING 221
SWIDTH 497 0
DWIDTH 7 0
BBX 7 13 0 -2
BITMAP
00
08
10
00
44
44
28
10
10
20
20
00
00
ENDCHAR

STARTCHAR Thorn
ENCODING 222
SWIDTH 497 0
DWIDTH 7 0
BBX 7 13 0 -2
BITMAP
00
00
40
7C
42
42
42
7C
80
80
80
00
00
ENDCHAR

STARTCHAR germandbls
ENCODING 223
SWIDTH 497 0
DWIDTH 7 0
BBX 7 13 0 -2
BITMAP
00
00
18
24
24
28
28
48
44
44
58
00
00
ENDCHAR

STARTCHAR agrave
ENCODING 224
SWIDTH 497 0
DWIDTH 7 0
BBX 7 13 0 -2
BITMAP
00
00
10
08
00
3C
02
7C
84
8C
74
00
00
ENDCHAR

STARTCHAR aacute
ENCODING 225
SWIDTH 497 0
DWIDTH 7 0
BBX 7 13 0 -2
BITMAP
00
00
08
10
00
3C
02
7C
84
8C
74
00
00
ENDCHAR

STARTCHAR acircumflex
ENCODING 226
SWIDTH 497 0
DWIDTH 7 0
BBX 7 13 0 -2
BITMAP
00
00
18
24
00
3C
02
7C
84
8C
74
00
00
ENDCHAR

STARTCHAR atilde
ENCODING 227
SWIDTH 497 0
DWIDTH 7 0
BBX 7 13 0 -2
BITMAP
00
00
32
4C
00
3C
02
7C
84
8C
74
00
00
ENDCHAR

STARTCHAR adieresis
ENCODING 228
SWIDTH 497 0
DWIDTH 7 0
BBX 7 13 0 -2
BITMAP
00
00
24
24
00
3C
02
7C
84
8C
74
00
00
ENDCHAR

STARTCHAR aring
ENCODING 229
SWIDTH 497 0
DWIDTH 7 0
BBX 7 13 0 -2
BITMAP
00
18
24
18
00
3C
02
7C
84
8C
74
00
00
ENDCHAR

STARTCHAR ae
ENCODING 230
SWIDTH 497 0
DWIDTH 7 0
BBX 7 13 0 -2
BITMAP
00
00
00
00
00
34
0A
7C
90
94
68
00
00
ENDCHAR

STARTCHAR ccedilla
ENCODING 231
SWIDTH 497 0
DWIDTH 7 0
BBX 7 13 0 -2
BITMAP
00
00
00
00
00
3C
42
80
80
84
78
10
20
ENDCHAR

STARTCHAR egrave
ENCODING 232
SWIDTH 497 0
DWIDTH 7 0
BBX 7 13 0 -2
BITMAP
00
00
10
08
00
3C
42
7C
80
84
78
00
00
ENDCHAR

STARTCHAR eacute
ENCODING 233
SWIDTH 497 0
DWIDTH 7 0
BBX 7 13 0 -2
BITMAP
00
00
08
10
00
3C
42
7C
80
84
78
00
00
ENDCHAR

STARTCHAR ecircumflex
ENCODING 234
SWIDTH 497 0
DWIDTH 7 0
BBX 7 13 0 -2
BITMAP
00
00
18
24
00
3C
42
7C
80
84
78
00
00
ENDCHAR

STARTCHAR edieresis
ENCODING 235
SWIDTH 497 0
DWIDTH 7 0
BBX 7 13 0 -2
BITMAP
00
00
24
24
00
3C
42
7C
80
84
78
00
00
ENDCHAR

STARTCHAR igrave
ENCODING 236
SWIDTH 497 0
DWIDTH 7 0
BBX 7 13 0 -2
BITMAP
00
00
10
08
00
18
08
10
10
10
7C
00
00
ENDCHAR

STARTCHAR iacute
ENCODING 237
SWIDTH 497 0
DWIDTH 7 0
BBX 7 13 0 -2
BITMAP
00
00
08
10
00
18
08
10
10
10
7C
00
00
ENDCHAR

STARTCHAR icircumflex
ENCODING 238
SWIDTH 497 0
DWIDTH 7 0
BBX 7 13 0 -2
BITMAP
00
00
18
24
00
18
08
10
10
10
7C
00
00
ENDCHAR

STARTCHAR idieresis
ENCODING 239
SWIDTH 497 0
DWIDTH 7 0
BBX 7 13 0 -2
BITMAP
00
00
24
24
00
18
08
10
10
10
7C
00
00
ENDCHAR

STARTCHAR eth
ENCODING 240
SWIDTH 497 0
DWIDTH 7 0
BBX 7 13 0 -2
BITMAP
00
24
18
28
04
3C
42
42
84
84
78
00
00
ENDCHAR

STARTCHAR ntilde
ENCODING 241
SWIDTH 497 0
DWIDTH 7 0
BBX 7 13 0 -2
BITMAP
00
00
32
4C
00
5C
62
42
84
84
84
00
00
ENDCHAR

STARTCHAR ograve
ENCODING 242
SWIDTH 497 0
DWIDTH 7 0
BBX 7 13 0 -2
BITMAP
00
00
10
08
00
3C
42
42
84
84
78
00
00
ENDCHAR

STARTCHAR oacute
ENCODING 243
SWIDTH 497 0
DWIDTH 7 0
BBX 7 13 0 -2
BITMAP
00
00
08
10
00
3C
42
42
84
84
78
00
00
ENDCHAR

STARTCHAR ocircumflex
ENCODING 244
SWIDTH 497 0
DWIDTH 7 0
BBX 7 13 0 -2
BITMAP
00
00
18
24
00
3C
42
42
84
84
78
00
00
ENDCHAR

STARTCHAR otilde
ENCODING 245
SWIDTH 497 0
DWIDTH 7 0
BBX 7 13 0 -2
BITMAP
00
00
32
4C
00
3C
42
42
84
84
78
00
00
ENDCHAR

STARTCHAR odieresis
ENCODING 246
SWIDTH 497 0
DWIDTH 7 0
BBX 7 13 0 -2
BITMAP
00
00
24
24
00
3C
42
42
84
84
78
00
00
ENDCHAR

STARTCHAR divide
ENCODING 247
SWIDTH 497 0
DWIDTH 7 0
BBX 7 13 0 -2
BITMAP
00
00
00
10
10
00
78
00
20
20
00
00
00
ENDCHAR

STARTCHAR oslash
ENCODING 248
SWIDTH 497 0
DWIDTH 7 0
BBX 7 13 0 -2
BITMAP
00
00
00
00
02
3C
4A
52
A4
C4
78
80
00
ENDCHAR

STARTCHAR ugrave
ENCODING 249
SWIDTH 497 0
DWIDTH 7 0
BBX 7 13 0 -2
BITMAP
00
00
10
08
00
42
42
42
84
8C
74
00
00
ENDCHAR

STARTCHAR uacute
ENCODING 250
SWIDTH 497 0
DWIDTH 7 0
BBX 7 13 0 -2
BITMAP
00
00
08
10
00
42
42
42
84
8C
74
00
00
ENDCHAR

STARTCHAR ucircumflex
ENCODING 251
SWIDTH 497 0
DWIDTH 7 0
BBX 7 13 0 -2
BITMAP
00
00
18
24
00
42
42
42
84
8C
74
00
00
ENDCHAR

STARTCHAR udieresis
ENCODING 252
SWIDTH 497 0
DWIDTH 7 0
BBX 7 13 0 -2
BITMAP
00
00
24
24
00
42
42
42
84
8C
74
00
00
ENDCHAR

STARTCHAR yacute
ENCODING 253
SWIDTH 497 0
DWIDTH 7 0
BBX 7 13 0 -2
BITMAP
00
00
08
10
00
42
42
84
8C
74
04
84
78
ENDCHAR

STARTCHAR thorn
ENCODING 254
SWIDTH 497 0
DWIDTH 7 0
BBX 7 13 0 -2
BITMAP
00
00
00
40
40
5C
62
42
84
C4
B8
80
80
ENDCHAR

STARTCHAR ydieresis
ENCODING 255
SWIDTH 497 0
DWIDTH 7 0
BBX 7 13 0 -2
BITMAP
00
00
24
24
00
42
42
84
8C
74
04
84
78
ENDCHAR

STARTCHAR Amacron
ENCODING 256
SWIDTH 497 0
DWIDTH 7 0
BBX 7 13 0 -2
BITMAP
00
3C
00
18
24
42
42
7C
84
84
84
00
00
ENDCHAR

STARTCHAR amacron
ENCODING 257
SWIDTH 497 0
DWIDTH 7 0
BBX 7 13 0 -2
BITMAP
00
00
00
3C
00
3C
02
7C
84
8C
74
00
00
ENDCHAR

STARTCHAR Abreve
ENCODING 258
SWIDTH 497 0
DWIDTH 7 0
BBX 7 13 0 -2
BITMAP
00
42
3C
00
18
24
42
42
7C
84
84
00
00
ENDCHAR

STARTCHAR abreve
ENCODING 259
SWIDTH 497 0
DWIDTH 7 0
BBX 7 13 0 -2
BITMAP
00
00
42
3C
00
3C
02
7C
84
8C
74
00
00
ENDCHAR

STARTCHAR Aogonek
ENCODING 260
SWIDTH 497 0
DWIDTH 7 0
BBX 7 13 0 -2
BITMAP
00
00
18
24
42
42
42
7E
84
84
84
08
06
ENDCHAR

STARTCHAR aogonek
ENCODING 261
SWIDTH 497 0
DWIDTH 7 0
BBX 7 13 0 -2
BITMAP
00
00
00
00
00
3C
02
7C
84
84
7C
08
06
ENDCHAR

STARTCHAR Cacute
ENCODING 262
SWIDTH 497 0
DWIDTH 7 0
BBX 7 13 0 -2
BITMAP
00
08
10
00
3C
42
40
80
80
84
78
00
00
ENDCHAR

STARTCHAR cacute
ENCODING 263
SWIDTH 497 0
DWIDTH 7 0
BBX 7 13 0 -2
BITMAP
00
00
04
08
00
3C
42
80
80
84
78
00
00
ENDCHAR

STARTCHAR Ccircumflex
ENCODING 264
SWIDTH 497 0
DWIDTH 7 0
BBX 7 13 0 -2
BITMAP
00
18
24
00
3C
42
40
80
80
84
78
00
00
ENDCHAR

STARTCHAR ccircumflex
ENCODING 265
SWIDTH 497 0
DWIDTH 7 0
BBX 7 13 0 -2
BITMAP
00
00
18
24
00
3C
42
80
80
84
78
00
00
ENDCHAR

STARTCHAR Cdotaccent
ENCODING 266
SWIDTH 497 0
DWIDTH 7 0
BBX 7 13 0 -2
BITMAP
00
18
00
3C
42
40
40
80
80
84
78
00
00
ENDCHAR

STARTCHAR cdotaccent
ENCODING 267
SWIDTH 497 0
DWIDTH 7 0
BBX 7 13 0 -2
BITMAP
00
00
00
18
00
3C
42
80
80
84
78
00
00
ENDCHAR

STARTCHAR Ccaron
ENCODING 268
SWIDTH 497 0
DWIDTH 7 0
BBX 7 13 0 -2
BITMAP
00
24
18
00
3C
42
40
80
80
84
78
00
00
ENDCHAR

STARTCHAR ccaron
ENCODING 269
SWIDTH 497 0
DWIDTH 7 0
BBX 7 13 0 -2
BITMAP
00
00
24
18
00
3C
42
80
80
84
78
00
00
ENDCHAR

STARTCHAR Dcaron
ENCODING 270
SWIDTH 497 0
DWIDTH 7 0
BBX 7 13 0 -2
BITMAP
00
24
18
00
7C
22
22
44
44
44
F8
00
00
ENDCHAR

STARTCHAR dcaron
ENCODING 271
SWIDTH 497 0
DWIDTH 7 0
BBX 7 13 0 -2
BITMAP
00
24
18
02
02
3A
44
84
84
8C
74
00
00
ENDCHAR

STARTCHAR Dcroat
ENCODING 272
SWIDTH 497 0
DWIDTH 7 0
BBX 7 13 0 -2
BITMAP
00
00
7C
22
22
22
F2
44
44
44
F8
00
00
ENDCHAR

STARTCHAR dcroat
ENCODING 273
SWIDTH 497 0
DWIDTH 7 0
BBX 7 13 0 -2
BITMAP
00
00
02
0E
02
3A
44
84
84
8C
74
00
00
ENDCHAR

STARTCHAR Emacron
ENCODING 274
SWIDTH 497 0
DWIDTH 7 0
BBX 7 13 0 -2
BITMAP
00
00
3C
00
7E
40
40
70
80
80
FC
00
00
ENDCHAR

STARTCHAR emacron
ENCODING 275
SWIDTH 497 0
DWIDTH 7 0
BBX 7 13 0 -2
BITMAP
00
00
00
3C
00
3C
42
7C
80
84
78
00
00
ENDCHAR

STARTCHAR Ebreve
ENCODING 276
SWIDTH 497 0
DWIDTH 7 0
BBX 7 13 0 -2
BITMAP
00
42
3C
00
7E
40
40
70
80
80
FC
00
00
ENDCHAR

STARTCHAR ebreve
ENCODING 277
SWIDTH 497 0
DWIDTH 7 0
BBX 7 13 0 -2
BITMAP
00
00
42
3C
00
3C
42
7C
80
84
78
00
00
ENDCHAR

STARTCHAR Edotaccent
ENCODING 278
SWIDTH 497 0
DWIDTH 7 0
BBX 7 13 0 -2
BITMAP
00
18
00
7E
40
40
78
80
80
80
FC
00
00
ENDCHAR

STARTCHAR edotaccent
ENCODING 279
SWIDTH 497 0
DWIDTH 7 0
BBX 7 13 0 -2
BITMAP
00
00
00
18
00
3C
42
7C
80
84
78
00
00
ENDCHAR

STARTCHAR Eogonek
ENCODING 280
SWIDTH 497 0
DWIDTH 7 0
BBX 7 13 0 -2
BITMAP
00
00
7E
40
40
40
78
80
80
80
FC
20
18
ENDCHAR

STARTCHAR eogonek
ENCODING 281
SWIDTH 497 0
DWIDTH 7 0
BBX 7 13 0 -2
BITMAP
00
00
00
00
00
3C
42
7C
80
84
78
40
30
ENDCHAR

STARTCHAR Ecaron
ENCODING 282
SWIDTH 497 0
DWIDTH 7 0
BBX 7 13 0 -2
BITMAP
00
24
18
00
7E
40
40
70
80
80
FC
00
00
ENDCHAR

STARTCHAR ecaron
ENCODING 283
SWIDTH 497 0
DWIDTH 7 0
BBX 7 13 0 -2
BITMAP
00
00
24
18
00
3C
42
7C
80
84
78
00
00
ENDCHAR

STARTCHAR Gcircumflex
ENCODING 284
SWIDTH 497 0
DWIDTH 7 0
BBX 7 13 0 -2
BITMAP
00
18
24
00
3C
42
40
9C
84
8C
74
00
00
ENDCHAR

STARTCHAR gcircumflex
ENCODING 285
SWIDTH 497 0
DWIDTH 7 0
BBX 7 13 0 -2
BITMAP
00
00
18
24
00
3A
44
88
70
80
78
84
78
ENDCHAR

STARTCHAR Gbreve
ENCODING 286
SWIDTH 497 0
DWIDTH 7 0
BBX 7 13 0 -2
BITMAP
00
42
3C
00
3C
42
40
9C
84
8C
74
00
00
ENDCHAR

STARTCHAR gbreve
ENCODING 287
SWIDTH 497 0
DWIDTH 7 0
BBX 7 13 0 -2
BITMAP
00
00
42
3C
00
3A
44
88
70
80
78
84
78
ENDCHAR

STARTCHAR Gdotaccent
ENCODING 288
SWIDTH 497 0
DWIDTH 7 0
BBX 7 13 0 -2
BITMAP
00
18
00
3C
42
40
40
9C
84
8C
74
00
00
ENDCHAR

STARTCHAR gdotaccent
ENCODING 289
SWIDTH 497 0
DWIDTH 7 0
BBX 7 13 0 -2
BITMAP
00
00
00
18
00
3A
44
88
70
80
78
84
78
ENDCHAR

STARTCHAR Gcommaaccent
ENCODING 290
SWIDTH 497 0
DWIDTH 7 0
BBX 7 13 0 -2
BITMAP
00
00
3C
42
40
40
40
9C
84
8C
74
10
20
ENDCHAR

STARTCHAR gcommaaccent
ENCODING 291
SWIDTH 497 0
DWIDTH 7 0
BBX 7 13 0 -2
BITMAP
00
08
10
18
00
3A
44
88
70
80
78
84
78
ENDCHAR

STARTCHAR Hcircumflex
ENCODING 292
SWIDTH 497 0
DWIDTH 7 0
BBX 7 13 0 -2
BITMAP
00
18
24
00
42
42
42
7C
84
84
84
00
00
ENDCHAR

STARTCHAR hcircumflex
ENCODING 293
SWIDTH 497 0
DWIDTH 7 0
BBX 7 13 0 -2
BITMAP
00
0C
12
40
40
40
78
44
88
88
88
00
00
ENDCHAR

STARTCHAR Hbar
ENCODING 294
SWIDTH 497 0
DWIDTH 7 0
BBX 7 13 0 -2
BITMAP
00
00
44
44
FE
44
78
88
88
88
88
00
00
ENDCHAR

STARTCHAR hbar
ENCODING 295
SWIDTH 497 0
DWIDTH 7 0
BBX 7 13 0 -2
BITMAP
00
00
40
F8
40
58
64
44
88
88
88
00
00
ENDCHAR

STARTCHAR Itilde
ENCODING 296
SWIDTH 497 0
DWIDTH 7 0
BBX 7 13 0 -2
BITMAP
00
24
58
00
7C
10
10
20
20
20
F8
00
00
ENDCHAR

STARTCHAR itilde
ENCODING 297
SWIDTH 497 0
DWIDTH 7 0
BBX 7 13 0 -2
BITMAP
00
00
24
58
00
30
10
10
20
20
F8
00
00
ENDCHAR

STARTCHAR Imacron
ENCODING 298
SWIDTH 497 0
DWIDTH 7 0
BBX 7 13 0 -2
BITMAP
00
7C
00
7C
10
10
10
20
20
20
F8
00
00
ENDCHAR

STARTCHAR imacron
ENCODING 299
SWIDTH 497 0
DWIDTH 7 0
BBX 7 13 0 -2
BITMAP
00
00
00
7C
00
30
10
10
20
20
F8
00
00
ENDCHAR

STARTCHAR Ibreve
ENCODING 300
SWIDTH 497 0
DWIDTH 7 0
BBX 7 13 0 -2
BITMAP
00
44
38
00
7C
10
10
20
20
20
F8
00
00
ENDCHAR

STARTCHAR ibreve
ENCODING 301
SWIDTH 497 0
DWIDTH 7 0
BBX 7 13 0 -2
BITMAP
00
00
44
38
00
30
10
10
20
20
F8
00
00
ENDCHAR

STARTCHAR Iogonek
ENCODING 302
SWIDTH 497 0
DWIDTH 7 0
BBX 7 13 0 -2
BITMAP
00
00
7C
10
10
10
10
20
20
20
F8
40
30
ENDCHAR

STARTCHAR iogonek
ENCODING 303
SWIDTH 497 0
DWIDTH 7 0
BBX 7 13 0 -2
BITMAP
00
00
00
08
00
18
08
08
10
10
7C
20
18
ENDCHAR

STARTCHAR Idotaccent
ENCODING 304
SWIDTH 497 0
DWIDTH 7 0
BBX 7 13 0 -2
BITMAP
00
10
00
7C
10
10
10
20
20
20
F8
00
00
ENDCHAR

STARTCHAR dotlessi
ENCODING 305
SWIDTH 497 0
DWIDTH 7 0
BBX 7 13 0 -2
BITMAP
00
00
00
00
00
18
08
08
10
10
7C
00
00
ENDCHAR

STARTCHAR IJ
ENCODING 306
SWIDTH 497 0
DWIDTH 7 0
BBX 7 13 0 -2
BITMAP
00
00
4E
44
44
44
44
88
88
A8
90
00
00
ENDCHAR

STARTCHAR ij
ENCODING 307
SWIDTH 497 0
DWIDTH 7 0
BBX 7 13 0 -2
BITMAP
00
00
00
44
00
4C
44
44
88
88
A8
28
10
ENDCHAR

STARTCHAR Jcircumflex
ENCODING 308
SWIDTH 497 0
DWIDTH 7 0
BBX 7 13 0 -2
BITMAP
00
0C
12
00
0E
04
04
08
08
88
70
00
00
ENDCHAR

STARTCHAR jcircumflex
ENCODING 309
SWIDTH 497 0
DWIDTH 7 0
BBX 7 13 0 -2
BITMAP
00
00
0C
12
00
0C
04
04
08
08
88
88
70
ENDCHAR

STARTCHAR Kcommaaccent
ENCODING 310
SWIDTH 497 0
DWIDTH 7 0
BBX 7 13 0 -2
BITMAP
00
00
42
44
48
50
60
A0
90
88
84
40
80
ENDCHAR

STARTCHAR kcommaaccent
ENCODING 311
SWIDTH 497 0
DWIDTH 7 0
BBX 7 13 0 -2
BITMAP
00
00
40
40
40
44
58
60
90
88
84
40
80
ENDCHAR

STARTCHAR kgreenlandic
ENCODING 312
SWIDTH 497 0
DWIDTH 7 0
BBX 7 13 0 -2
BITMAP
00
00
00
00
42
44
58
60
90
88
84
00
00
ENDCHAR

STARTCHAR Lacute
ENCODING 313
SWIDTH 497 0
DWIDTH 7 0
BBX 7 13 0 -2
BITMAP
00
20
40
00
40
40
40
80
80
80
FC
00
00
ENDCHAR

STARTCHAR lacute
ENCODING 314
SWIDTH 497 0
DWIDTH 7 0
BBX 7 13 0 -2
BITMAP
00
08
10
00
18
08
08
10
10
10
7C
00
00
ENDCHAR

STARTCHAR Lcommaaccent
ENCODING 315
SWIDTH 497 0
DWIDTH 7 0
BBX 7 13 0 -2
BITMAP
00
00
40
40
40
40
40
80
80
80
FC
10
20
ENDCHAR

STARTCHAR lcommaaccent
ENCODING 316
SWIDTH 497 0
DWIDTH 7 0
BBX 7 13 0 -2
BITMAP
00
00
18
08
08
08
08
10
10
10
7C
10
20
ENDCHAR

STARTCHAR Lcaron
ENCODING 317
SWIDTH 497 0
DWIDTH 7 0
BBX 7 13 0 -2
BITMAP
00
48
30
00
40
40
40
80
80
80
FC
00
00
ENDCHAR

STARTCHAR lcaron
ENCODING 318
SWIDTH 497 0
DWIDTH 7 0
BBX 7 13 0 -2
BITMAP
00
24
18
00
18
08
08
10
10
10
7C
00
00
ENDCHAR

STARTCHAR Ldot
ENCODING 319
SWIDTH 497 0
DWIDTH 7 0
BBX 7 13 0 -2
BITMAP
00
00
40
40
40
48
48
80
80
80
FC
00
00
ENDCHAR

STARTCHAR ldot
ENCODING 320
SWIDTH 497 0
DWIDTH 7 0
BBX 7 13 0 -2
BITMAP
00
00
30
10
10
12
12
20
20
20
F8
00
00
ENDCHAR

STARTCHAR Lslash
ENCODING 321
SWIDTH 497 0
DWIDTH 7 0
BBX 7 13 0 -2
BITMAP
00
00
20
20
28
30
40
C0
40
40
7C
00
00
ENDCHAR

STARTCHAR lslash
ENCODING 322
SWIDTH 497 0
DWIDTH 7 0
BBX 7 13 0 -2
BITMAP
00
00
30
10
14
18
20
60
20
20
F8
00
00
ENDCHAR

STARTCHAR Nacute
ENCODING 323
SWIDTH 497 0
DWIDTH 7 0
BBX 7 13 0 -2
BITMAP
00
08
10
00
42
62
52
94
8C
8C
84
00
00
ENDCHAR

STARTCHAR nacute
ENCODING 324
SWIDTH 497 0
DWIDTH 7 0
BBX 7 13 0 -2
BITMAP
00
00
08
10
00
5C
62
42
84
84
84
00
00
ENDCHAR

STARTCHAR Ncommaaccent
ENCODING 325
SWIDTH 497 0
DWIDTH 7 0
BBX 7 13 0 -2
BITMAP
00
00
42
42
62
52
4A
8C
84
84
84
40
80
ENDCHAR

STARTCHAR ncommaaccent
ENCODING 326
SWIDTH 497 0
DWIDTH 7 0
BBX 7 13 0 -2
BITMAP
00
00
00
00
00
5C
62
42
84
84
84
40
80
ENDCHAR

STARTCHAR Ncaron
ENCODING 327
SWIDTH 497 0
DWIDTH 7 0
BBX 7 13 0 -2
BITMAP
00
24
18
00
42
62
52
94
8C
8C
84
00
00
ENDCHAR

STARTCHAR ncaron
ENCODING 328
SWIDTH 497 0
DWIDTH 7 0
BBX 7 13 0 -2
BITMAP
00
00
24
18
00
5C
62
42
84
84
84
00
00
ENDCHAR

STARTCHAR napostrophe
ENCODING 329
SWIDTH 497 0
DWIDTH 7 0
BBX 7 13 0 -2
BITMAP
00
C0
40
80
00
58
64
44
88
88
88
00
00
ENDCHAR

STARTCHAR Eng
ENCODING 330
SWIDTH 497 0
DWIDTH 7 0
BBX 7 13 0 -2
BITMAP
00
00
42
42
62
52
4A
84
84
84
84
04
18
ENDCHAR

STARTCHAR eng
ENCODING 331
SWIDTH 497 0
DWIDTH 7 0
BBX 7 13 0 -2
BITMAP
00
00
00
00
00
5C
62
42
84
84
84
04
18
ENDCHAR

STARTCHAR Omacron
ENCODING 332
SWIDTH 497 0
DWIDTH 7 0
BBX 7 13 0 -2
BITMAP
00
00
3C
00
3C
42
42
84
84
84
78
00
00
ENDCHAR

STARTCHAR omacron
ENCODING 333
SWIDTH 497 0
DWIDTH 7 0
BBX 7 13 0 -2
BITMAP
00
00
00
3C
00
3C
42
42
84
84
78
00
00
ENDCHAR

STARTCHAR Obreve
ENCODING 334
SWIDTH 497 0
DWIDTH 7 0
BBX 7 13 0 -2
BITMAP
00
42
3C
00
3C
42
42
84
84
84
78
00
00
ENDCHAR

STARTCHAR obreve
ENCODING 335
SWIDTH 497 0
DWIDTH 7 0
BBX 7 13 0 -2
BITMAP
00
00
42
3C
00
3C
42
42
84
84
78
00
00
ENDCHAR

STARTCHAR Ohungarumlaut
ENCODING 336
SWIDTH 497 0
DWIDTH 7 0
BBX 7 13 0 -2
BITMAP
00
12
24
00
3C
42
42
84
84
84
78
00
00
ENDCHAR

STARTCHAR ohungarumlaut
ENCODING 337
SWIDTH 497 0
DWIDTH 7 0
BBX 7 13 0 -2
BITMAP
00
00
12
24
00
3C
42
42
84
84
78
00
00
ENDCHAR

STARTCHAR OE
ENCODING 338
SWIDTH 497 0
DWIDTH 7 0
BBX 7 13 0 -2
BITMAP
00
00
3E
48
48
48
4E
90
90
90
7C
00
00
ENDCHAR

STARTCHAR oe
ENCODING 339
SWIDTH 497 0
DWIDTH 7 0
BBX 7 13 0 -2
BITMAP
00
00
00
00
00
34
4A
9C
90
94
68
00
00
ENDCHAR

STARTCHAR Racute
ENCODING 340
SWIDTH 497 0
DWIDTH 7 0
BBX 7 13 0 -2
BITMAP
00
08
10
00
7C
42
42
7C
90
88
84
00
00
ENDCHAR

STARTCHAR racute
ENCODING 341
SWIDTH 497 0
DWIDTH 7 0
BBX 7 13 0 -2
BITMAP
00
00
10
20
00
B8
44
40
80
80
80
00
00
ENDCHAR

STARTCHAR Rcommaaccent
ENCODING 342
SWIDTH 497 0
DWIDTH 7 0
BBX 7 13 0 -2
BITMAP
00
00
7C
42
42
42
7C
A0
90
88
84
40
80
ENDCHAR

STARTCHAR rcommaaccent
ENCODING 343
SWIDTH 497 0
DWIDTH 7 0
BBX 7 13 0 -2
BITMAP
00
00
00
00
00
5C
22
20
40
40
40
40
80
ENDCHAR

STARTCHAR Rcaron
ENCODING 344
SWIDTH 497 0
DWIDTH 7 0
BBX 7 13 0 -2
BITMAP
00
24
18
00
7C
42
42
7C
90
88
84
00
00
ENDCHAR

STARTCHAR rcaron
ENCODING 345
SWIDTH 497 0
DWIDTH 7 0
BBX 7 13 0 -2
BITMAP
00
00
48
30
00
B8
44
40
80
80
80
00
00
ENDCHAR

STARTCHAR Sacute
ENCODING 346
SWIDTH 497 0
DWIDTH 7 0
BBX 7 13 0 -2
BITMAP
00
08
10
00
3C
42
40
38
04
84
78
00
00
ENDCHAR

STARTCHAR sacute
ENCODING 347
SWIDTH 497 0
DWIDTH 7 0
BBX 7 13 0 -2
BITMAP
00
00
08
10
00
3C
42
30
08
84
78
00
00
ENDCHAR

STARTCHAR Scircumflex
ENCODING 348
SWIDTH 497 0
DWIDTH 7 0
BBX 7 13 0 -2
BITMAP
00
18
24
00
3C
42
40
38
04
84
78
00
00
ENDCHAR

STARTCHAR scircumflex
ENCODING 349
SWIDTH 497 0
DWIDTH 7 0
BBX 7 13 0 -2
BITMAP
00
00
18
24
00
3C
42
30
08
84
78
00
00
ENDCHAR

STARTCHAR Scedilla
ENCODING 350
SWIDTH 497 0
DWIDTH 7 0
BBX 7 13 0 -2
BITMAP
00
00
3C
42
40
40
38
04
04
84
78
10
20
ENDCHAR

STARTCHAR scedilla
ENCODING 351
SWIDTH 497 0
DWIDTH 7 0
BBX 7 13 0 -2
BITMAP
00
00
00
00
00
3C
42
30
08
84
78
10
20
ENDCHAR

STARTCHAR Scaron
ENCODING 352
SWIDTH 497 0
DWIDTH 7 0
BBX 7 13 0 -2
BITMAP
00
24
18
00
3C
42
40
38
04
84
78
00
00
ENDCHAR

STARTCHAR scaron
ENCODING 353
SWIDTH 497 0
DWIDTH 7 0
BBX 7 13 0 -2
BITMAP
00
00
24
18
00
3C
42
30
08
84
78
00
00
ENDCHAR

STARTCHAR Tcommaaccent
ENCODING 354
SWIDTH 497 0
DWIDTH 7 0
BBX 7 13 0 -2
BITMAP
00
00
7C
10
10
10
10
20
20
20
20
10
20
ENDCHAR

STARTCHAR tcommaaccent
ENCODING 355
SWIDTH 497 0
DWIDTH 7 0
BBX 7 13 0 -2
BITMAP
00
00
00
20
20
78
20
40
40
44
38
10
20
ENDCHAR

STARTCHAR Tcaron
ENCODING 356
SWIDTH 497 0
DWIDTH 7 0
BBX 7 13 0 -2
BITMAP
00
24
18
00
7C
10
10
20
20
20
20
00
00
ENDCHAR

STARTCHAR tcaron
ENCODING 357
SWIDTH 497 0
DWIDTH 7 0
BBX 7 13 0 -2
BITMAP
00
24
18
00
20
78
20
20
40
44
38
00
00
ENDCHAR

STARTCHAR Tbar
ENCODING 358
SWIDTH 497 0
DWIDTH 7 0
BBX 7 13 0 -2
BITMAP
00
00
7C
10
10
10
78
20
20
20
20
00
00
ENDCHAR

STARTCHAR tbar
ENCODING 359
SWIDTH 497 0
DWIDTH 7 0
BBX 7 13 0 -2
BITMAP
00
00
08
3C
10
10
78
20
20
24
18
00
00
ENDCHAR

STARTCHAR Utilde
ENCODING 360
SWIDTH 497 0
DWIDTH 7 0
BBX 7 13 0 -2
BITMAP
00
32
4C
00
42
42
42
84
84
84
78
00
00
ENDCHAR

STARTCHAR utilde
ENCODING 361
SWIDTH 497 0
DWIDTH 7 0
BBX 7 13 0 -2
BITMAP
00
00
32
4C
00
42
42
42
84
8C
74
00
00
ENDCHAR

STARTCHAR Umacron
ENCODING 362
SWIDTH 497 0
DWIDTH 7 0
BBX 7 13 0 -2
BITMAP
00
00
3C
00
42
42
42
84
84
84
78
00
00
ENDCHAR

STARTCHAR umacron
ENCODING 363
SWIDTH 497 0
DWIDTH 7 0
BBX 7 13 0 -2
BITMAP
00
00
00
3C
00
42
42
42
84
8C
74
00
00
ENDCHAR

STARTCHAR Ubreve
ENCODING 364
SWIDTH 497 0
DWIDTH 7 0
BBX 7 13 0 -2
BITMAP
00
42
3C
00
42
42
42
84
84
84
78
00
00
ENDCHAR

STARTCHAR ubreve
ENCODING 365
SWIDTH 497 0
DWIDTH 7 0
BBX 7 13 0 -2
BITMAP
00
00
42
3C
00
42
42
42
84
8C
74
00
00
ENDCHAR

STARTCHAR Uring
ENCODING 366
SWIDTH 497 0
DWIDTH 7 0
BBX 7 13 0 -2
BITMAP
00
18
24
18
42
42
42
84
84
84
78
00
00
ENDCHAR

STARTCHAR uring
ENCODING 367
SWIDTH 497 0
DWIDTH 7 0
BBX 7 13 0 -2
BITMAP
00
18
24
18
00
42
42
42
84
8C
74
00
00
ENDCHAR

STARTCHAR Uhungarumlaut
ENCODING 368
SWIDTH 497 0
DWIDTH 7 0
BBX 7 13 0 -2
BITMAP
00
12
24
00
42
42
42
84
84
84
78
00
00
ENDCHAR

STARTCHAR uhungarumlaut
ENCODING 369
SWIDTH 497 0
DWIDTH 7 0
BBX 7 13 0 -2
BITMAP
00
00
12
24
00
42
42
42
84
8C
74
00
00
ENDCHAR

STARTCHAR Uogonek
ENCODING 370
SWIDTH 497 0
DWIDTH 7 0
BBX 7 13 0 -2
BITMAP
00
00
42
42
42
42
42
84
84
84
78
20
10
ENDCHAR

STARTCHAR uogonek
ENCODING 371
SWIDTH 497 0
DWIDTH 7 0
BBX 7 13 0 -2
BITMAP
00
00
00
00
00
42
42
42
84
8C
74
20
10
ENDCHAR

STARTCHAR Wcircumflex
ENCODING 372
SWIDTH 497 0
DWIDTH 7 0
BBX 7 13 0 -2
BITMAP
00
18
24
00
42
42
5A
B4
CC
CC
84
00
00
ENDCHAR

STARTCHAR wcircumflex
ENCODING 373
SWIDTH 497 0
DWIDTH 7 0
BBX 7 13 0 -2
BITMAP
00
00
10
28
00
44
44
54
A8
A8
50
00
00
ENDCHAR

STARTCHAR Ycircumflex
ENCODING 374
SWIDTH 497 0
DWIDTH 7 0
BBX 7 13 0 -2
BITMAP
00
10
28
00
44
44
28
10
10
20
20
00
00
ENDCHAR

STARTCHAR ycircumflex
ENCODING 375
SWIDTH 497 0
DWIDTH 7 0
BBX 7 13 0 -2
BITMAP
00
00
18
24
00
42
42
84
8C
74
04
84
78
ENDCHAR

STARTCHAR Ydieresis
ENCODING 376
SWIDTH 497 0
DWIDTH 7 0
BBX 7 13 0 -2
BITMAP
00
44
44
00
44
44
28
10
10
20
20
00
00
ENDCHAR

STARTCHAR Zacute
ENCODING 377
SWIDTH 497 0
DWIDTH 7 0
BBX 7 13 0 -2
BITMAP
00
08
10
00
7E
04
08
30
40
80
FC
00
00
ENDCHAR

STARTCHAR zacute
ENCODING 378
SWIDTH 497 0
DWIDTH 7 0
BBX 7 13 0 -2
BITMAP
00
00
08
10
00
7E
04
18
20
40
FC
00
00
ENDCHAR

STARTCHAR Zdotaccent
ENCODING 379
SWIDTH 497 0
DWIDTH 7 0
BBX 7 13 0 -2
BITMAP
00
18
00
7E
02
04
18
20
40
80
FC
00
00
ENDCHAR

STARTCHAR zdotaccent
ENCODING 380
SWIDTH 497 0
DWIDTH 7 0
BBX 7 13 0 -2
BITMAP
00
00
00
18
00
7E
04
18
20
40
FC
00
00
ENDCHAR

STARTCHAR Zcaron
ENCODING 381
SWIDTH 497 0
DWIDTH 7 0
BBX 7 13 0 -2
BITMAP
00
24
18
00
7E
04
08
30
40
80
FC
00
00
ENDCHAR

STARTCHAR zcaron
ENCODING 382
SWIDTH 497 0
DWIDTH 7 0
BBX 7 13 0 -2
BITMAP
00
00
24
18
00
7E
04
18
20
40
FC
00
00
ENDCHAR

STARTCHAR longs
ENCODING 383
SWIDTH 497 0
DWIDTH 7 0
BBX 7 13 0 -2
BITMAP
00
00
18
24
20
60
20
40
40
40
40
00
00
ENDCHAR

STARTCHAR uni018F
ENCODING 399
SWIDTH 497 0
DWIDTH 7 0
BBX 7 13 0 -2
BITMAP
00
00
3C
42
02
02
FC
84
84
84
78
00
00
ENDCHAR

STARTCHAR uni0190
ENCODING 400
SWIDTH 497 0
DWIDTH 7 0
BBX 7 13 0 -2
BITMAP
00
00
3C
42
40
40
38
40
80
84
78
00
00
ENDCHAR

STARTCHAR uni0191
ENCODING 401
SWIDTH 497 0
DWIDTH 7 0
BBX 7 13 0 -2
BITMAP
00
00
3E
20
20
20
38
40
40
40
40
80
00
ENDCHAR

STARTCHAR florin
ENCODING 402
SWIDTH 497 0
DWIDTH 7 0
BBX 7 13 0 -2
BITMAP
00
00
0C
12
10
10
3C
10
20
20
A0
40
00
ENDCHAR

STARTCHAR Aringacute
ENCODING 506
SWIDTH 497 0
DWIDTH 7 0
BBX 7 13 0 -2
BITMAP
08
10
18
24
18
18
24
44
7C
84
84
00
00
ENDCHAR

STARTCHAR aringacute
ENCODING 507
SWIDTH 497 0
DWIDTH 7 0
BBX 7 13 0 -2
BITMAP
08
10
18
24
18
3C
02
7C
84
8C
74
00
00
ENDCHAR

STARTCHAR AEacute
ENCODING 508
SWIDTH 497 0
DWIDTH 7 0
BBX 7 13 0 -2
BITMAP
08
10
00
3E
50
50
5C
60
A0
A0
BC
00
00
ENDCHAR

STARTCHAR aeacute
ENCODING 509
SWIDTH 497 0
DWIDTH 7 0
BBX 7 13 0 -2
BITMAP
00
00
04
08
00
34
0A
7C
90
94
68
00
00
ENDCHAR

STARTCHAR Oslashacute
ENCODING 510
SWIDTH 497 0
DWIDTH 7 0
BBX 7 13 0 -2
BITMAP
08
10
02
3C
46
4A
4A
A4
A4
C4
78
80
00
ENDCHAR

STARTCHAR oslashacute
ENCODING 511
SWIDTH 497 0
DWIDTH 7 0
BBX 7 13 0 -2
BITMAP
00
00
08
10
02
3C
46
4A
94
E4
78
80
00
ENDCHAR

STARTCHAR Scommaaccent
ENCODING 536
SWIDTH 497 0
DWIDTH 7 0
BBX 7 13 0 -2
BITMAP
00
00
3C
42
40
40
38
04
04
84
78
10
20
ENDCHAR

STARTCHAR scommaaccent
ENCODING 537
SWIDTH 497 0
DWIDTH 7 0
BBX 7 13 0 -2
BITMAP
00
00
00
00
00
3C
42
30
08
84
78
10
20
ENDCHAR

STARTCHAR Tcommaaccent
ENCODING 538
SWIDTH 497 0
DWIDTH 7 0
BBX 7 13 0 -2
BITMAP
00
00
7C
10
10
10
10
20
20
20
20
10
20
ENDCHAR

STARTCHAR tcommaaccent
ENCODING 539
SWIDTH 497 0
DWIDTH 7 0
BBX 7 13 0 -2
BITMAP
00
00
00
20
20
78
20
40
40
44
38
10
20
ENDCHAR

STARTCHAR uni0259
ENCODING 601
SWIDTH 497 0
DWIDTH 7 0
BBX 7 13 0 -2
BITMAP
00
00
00
00
00
3C
42
02
FC
84
78
00
00
ENDCHAR

STARTCHAR uni02C4
ENCODING 708
SWIDTH 497 0
DWIDTH 7 0
BBX 7 13 0 -2
BITMAP
00
00
10
28
44
00
00
00
00
00
00
00
00
ENDCHAR

STARTCHAR uni02C5
ENCODING 709
SWIDTH 497 0
DWIDTH 7 0
BBX 7 13 0 -2
BITMAP
00
00
44
28
10
00
00
00
00
00
00
00
00
ENDCHAR

STARTCHAR circumflex
ENCODING 710
SWIDTH 497 0
DWIDTH 7 0
BBX 7 13 0 -2
BITMAP
00
30
48
00
00
00
00
00
00
00
00
00
00
ENDCHAR

STARTCHAR caron
ENCODING 711
SWIDTH 497 0
DWIDTH 7 0
BBX 7 13 0 -2
BITMAP
00
48
30
00
00
00
00
00
00
00
00
00
00
ENDCHAR

STARTCHAR uni02C8
ENCODING 712
SWIDTH 497 0
DWIDTH 7 0
BBX 7 13 0 -2
BITMAP
00
10
10
10
00
00
00
00
00
00
00
00
00
ENDCHAR

STARTCHAR macron
ENCODING 713
SWIDTH 497 0
DWIDTH 7 0
BBX 7 13 0 -2
BITMAP
00
7C
00
00
00
00
00
00
00
00
00
00
00
ENDCHAR

STARTCHAR uni02CA
ENCODING 714
SWIDTH 497 0
DWIDTH 7 0
BBX 7 13 0 -2
BITMAP
00
00
08
10
20
00
00
00
00
00
00
00
00
ENDCHAR

STARTCHAR uni02CB
ENCODING 715
SWIDTH 497 0
DWIDTH 7 0
BBX 7 13 0 -2
BITMAP
00
00
20
10
08
00
00
00
00
00
00
00
00
ENDCHAR

STARTCHAR breve
ENCODING 728
SWIDTH 497 0
DWIDTH 7 0
BBX 7 13 0 -2
BITMAP
00
84
78
00
00
00
00
00
00
00
00
00
00
ENDCHAR

STARTCHAR dotaccent
ENCODING 729
SWIDTH 497 0
DWIDTH 7 0
BBX 7 13 0 -2
BITMAP
10
10
00
00
00
00
00
00
00
00
00
00
00
ENDCHAR

STARTCHAR ring
ENCODING 730
SWIDTH 497 0
DWIDTH 7 0
BBX 7 13 0 -2
BITMAP
00
30
48
30
00
00
00
00
00
00
00
00
00
ENDCHAR

STARTCHAR ogonek
ENCODING 731
SWIDTH 497 0
DWIDTH 7 0
BBX 7 13 0 -2
BITMAP
00
00
00
00
00
00
00
00
00
00
00
20
10
ENDCHAR

STARTCHAR tilde
ENCODING 732
SWIDTH 497 0
DWIDTH 7 0
BBX 7 13 0 -2
BITMAP
00
64
98
00
00
00
00
00
00
00
00
00
00
ENDCHAR

STARTCHAR hungarumlaut
ENCODING 733
SWIDTH 497 0
DWIDTH 7 0
BBX 7 13 0 -2
BITMAP
00
24
48
00
00
00
00
00
00
00
00
00
00
ENDCHAR

STARTCHAR gravecomb
ENCODING 768
SWIDTH 497 0
DWIDTH 7 0
BBX 7 13 0 -2
BITMAP
20
10
00
00
00
00
00
00
00
00
00
00
00
ENDCHAR

STARTCHAR acutecomb
ENCODING 769
SWIDTH 497 0
DWIDTH 7 0
BBX 7 13 0 -2
BITMAP
10
20
00
00
00
00
00
00
00
00
00
00
00
ENDCHAR

STARTCHAR uni0302
ENCODING 770
SWIDTH 497 0
DWIDTH 7 0
BBX 7 13 0 -2
BITMAP
10
28
00
00
00
00
00
00
00
00
00
00
00
ENDCHAR

STARTCHAR tildecomb
ENCODING 771
SWIDTH 497 0
DWIDTH 7 0
BBX 7 13 0 -2
BITMAP
28
50
00
00
00
00
00
00
00
00
00
00
00
ENDCHAR

STARTCHAR uni0304
ENCODING 772
SWIDTH 497 0
DWIDTH 7 0
BBX 7 13 0 -2
BITMAP
00
78
00
00
00
00
00
00
00
00
00
00
00
ENDCHAR

STARTCHAR uni0305
ENCODING 773
SWIDTH 497 0
DWIDTH 7 0
BBX 7 13 0 -2
BITMAP
00
FC
00
00
00
00
00
00
00
00
00
00
00
ENDCHAR

STARTCHAR uni0306
ENCODING 774
SWIDTH 497 0
DWIDTH 7 0
BBX 7 13 0 -2
BITMAP
44
38
00
00
00
00
00
00
00
00
00
00
00
ENDCHAR

STARTCHAR uni0307
ENCODING 775
SWIDTH 497 0
DWIDTH 7 0
BBX 7 13 0 -2
BITMAP
10
10
00
00
00
00
00
00
00
00
00
00
00
ENDCHAR

STARTCHAR uni0308
ENCODING 776
SWIDTH 497 0
DWIDTH 7 0
BBX 7 13 0 -2
BITMAP
28
28
00
00
00
00
00
00
00
00
00
00
00
ENDCHAR

STARTCHAR hookabovecomb
ENCODING 777
SWIDTH 497 0
DWIDTH 7 0
BBX 7 13 0 -2
BITMAP
30
08
10
00
00
00
00
00
00
00
00
00
00
ENDCHAR

STARTCHAR uni030A
ENCODING 778
SWIDTH 497 0
DWIDTH 7 0
BBX 7 13 0 -2
BITMAP
10
28
10
00
00
00
00
00
00
00
00
00
00
ENDCHAR

STARTCHAR uni030B
ENCODING 779
SWIDTH 497 0
DWIDTH 7 0
BBX 7 13 0 -2
BITMAP
24
48
00
00
00
00
00
00
00
00
00
00
00
ENDCHAR

STARTCHAR uni030C
ENCODING 780
SWIDTH 497 0
DWIDTH 7 0
BBX 7 13 0 -2
BITMAP
28
10
00
00
00
00
00
00
00
00
00
00
00
ENDCHAR

STARTCHAR uni030D
ENCODING 781
SWIDTH 497 0
DWIDTH 7 0
BBX 7 13 0 -2
BITMAP
10
10
10
00
00
00
00
00
00
00
00
00
00
ENDCHAR

STARTCHAR uni030E
ENCODING 782
SWIDTH 497 0
DWIDTH 7 0
BBX 7 13 0 -2
BITMAP
28
28
28
00
00
00
00
00
00
00
00
00
00
ENDCHAR

STARTCHAR uni030F
ENCODING 783
SWIDTH 497 0
DWIDTH 7 0
BBX 7 13 0 -2
BITMAP
48
24
00
00
00
00
00
00
00
00
00
00
00
ENDCHAR

STARTCHAR uni0310
ENCODING 784
SWIDTH 497 0
DWIDTH 7 0
BBX 7 13 0 -2
BITMAP
10
44
38
00
00
00
00
00
00
00
00
00
00
ENDCHAR

STARTCHAR uni0311
ENCODING 785
SWIDTH 497 0
DWIDTH 7 0
BBX 7 13 0 -2
BITMAP
38
44
00
00
00
00
00
00
00
00
00
00
00
ENDCHAR

STARTCHAR dotbelowcomb
ENCODING 803
SWIDTH 497 0
DWIDTH 7 0
BBX 7 13 0 -2
BITMAP
00
00
00
00
00
00
00
00
00
00
00
00
10
ENDCHAR

STARTCHAR uni0324
ENCODING 804
SWIDTH 497 0
DWIDTH 7 0
BBX 7 13 0 -2
BITMAP
00
00
00
00
00
00
00
00
00
00
00
00
28
ENDCHAR

STARTCHAR uni0340
ENCODING 832
SWIDTH 497 0
DWIDTH 7 0
BBX 7 13 0 -2
BITMAP
20
10
00
00
00
00
00
00
00
00
00
00
00
ENDCHAR

STARTCHAR uni0341
ENCODING 833
SWIDTH 497 0
DWIDTH 7 0
BBX 7 13 0 -2
BITMAP
10
20
00
00
00
00
00
00
00
00
00
00
00
ENDCHAR

STARTCHAR uni0374
ENCODING 884
SWIDTH 497 0
DWIDTH 7 0
BBX 7 13 0 -2
BITMAP
00
00
10
20
00
00
00
00
00
00
00
00
00
ENDCHAR

STARTCHAR uni0375
ENCODING 885
SWIDTH 497 0
DWIDTH 7 0
BBX 7 13 0 -2
BITMAP
00
00
00
00
00
00
00
00
00
00
00
10
20
ENDCHAR

STARTCHAR uni037A
ENCODING 890
SWIDTH 497 0
DWIDTH 7 0
BBX 7 13 0 -2
BITMAP
00
00
00
00
00
00
00
00
00
00
00
20
30
ENDCHAR

STARTCHAR uni037E
ENCODING 894
SWIDTH 497 0
DWIDTH 7 0
BBX 7 13 0 -2
BITMAP
00
00
00
00
08
1C
08
00
00
38
30
40
00
ENDCHAR

STARTCHAR tonos
ENCODING 900
SWIDTH 497 0
DWIDTH 7 0
BBX 7 13 0 -2
BITMAP
00
00
10
20
00
00
00
00
00
00
00
00
00
ENDCHAR

STARTCHAR dieresistonos
ENCODING 901
SWIDTH 497 0
DWIDTH 7 0
BBX 7 13 0 -2
BITMAP
00
08
54
44
00
00
00
00
00
00
00
00
00
ENDCHAR

STARTCHAR Alphatonos
ENCODING 902
SWIDTH 497 0
DWIDTH 7 0
BBX 7 13 0 -2
BITMAP
00
00
58
A4
24
24
24
38
48
48
48
00
00
ENDCHAR

STARTCHAR anoteleia
ENCODING 903
SWIDTH 497 0
DWIDTH 7 0
BBX 7 13 0 -2
BITMAP
00
00
00
00
00
30
00
00
00
00
00
00
00
ENDCHAR

STARTCHAR Epsilontonos
ENCODING 904
SWIDTH 497 0
DWIDTH 7 0
BBX 7 13 0 -2
BITMAP
00
00
7C
A0
20
20
38
40
40
40
78
00
00
ENDCHAR

STARTCHAR Etatonos
ENCODING 905
SWIDTH 497 0
DWIDTH 7 0
BBX 7 13 0 -2
BITMAP
00
00
64
A4
24
24
38
48
48
48
48
00
00
ENDCHAR

STARTCHAR Iotatonos
ENCODING 906
SWIDTH 497 0
DWIDTH 7 0
BBX 7 13 0 -2
BITMAP
00
00
5C
88
08
08
08
10
10
10
38
00
00
ENDCHAR

STARTCHAR Omicrontonos
ENCODING 908
SWIDTH 497 0
DWIDTH 7 0
BBX 7 13 0 -2
BITMAP
00
00
58
A4
24
24
24
48
48
48
30
00
00
ENDCHAR

STARTCHAR Upsilontonos
ENCODING 910
SWIDTH 497 0
DWIDTH 7 0
BBX 7 13 0 -2
BITMAP
00
00
54
94
14
08
08
08
10
10
10
00
00
ENDCHAR

STARTCHAR Omegatonos
ENCODING 911
SWIDTH 497 0
DWIDTH 7 0
BBX 7 13 0 -2
BITMAP
00
00
58
A4
24
24
48
48
30
30
48
00
00
ENDCHAR

STARTCHAR iotadieresistonos
ENCODING 912
SWIDTH 497 0
DWIDTH 7 0
BBX 7 13 0 -2
BITMAP
00
10
A4
84
00
20
20
40
40
48
30
00
00
ENDCHAR

STARTCHAR Alpha
ENCODING 913
SWIDTH 497 0
DWIDTH 7 0
BBX 7 13 0 -2
BITMAP
00
00
18
24
42
42
42
7C
84
84
84
00
00
ENDCHAR

STARTCHAR Beta
ENCODING 914
SWIDTH 497 0
DWIDTH 7 0
BBX 7 13 0 -2
BITMAP
00
00
7C
42
42
42
7C
84
84
84
F8
00
00
ENDCHAR

STARTCHAR Gamma
ENCODING 915
SWIDTH 497 0
DWIDTH 7 0
BBX 7 13 0 -2
BITMAP
00
00
7E
40
40
40
40
80
80
80
80
00
00
ENDCHAR

STARTCHAR Delta
ENCODING 916
SWIDTH 497 0
DWIDTH 7 0
BBX 7 13 0 -2
BITMAP
00
00
18
18
28
28
44
44
84
84
FC
00
00
ENDCHAR

STARTCHAR Epsilon
ENCODING 917
SWIDTH 497 0
DWIDTH 7 0
BBX 7 13 0 -2
BITMAP
00
00
7E
40
40
40
78
80
80
80
FC
00
00
ENDCHAR

STARTCHAR Zeta
ENCODING 918
SWIDTH 497 0
DWIDTH 7 0
BBX 7 13 0 -2
BITMAP
00
00
7E
02
04
08
10
20
40
80
FC
00
00
ENDCHAR

STARTCHAR Eta
ENCODING 919
SWIDTH 497 0
DWIDTH 7 0
BBX 7 13 0 -2
BITMAP
00
00
42
42
42
42
7C
84
84
84
84
00
00
ENDCHAR

STARTCHAR Theta
ENCODING 920
SWIDTH 497 0
DWIDTH 7 0
BBX 7 13 0 -2
BITMAP
00
00
3C
42
42
42
7C
84
84
84
78
00
00
ENDCHAR

STARTCHAR Iota
ENCODING 921
SWIDTH 497 0
DWIDTH 7 0
BBX 7 13 0 -2
BITMAP
00
00
7C
10
10
10
10
20
20
20
F8
00
00
ENDCHAR

STARTCHAR Kappa
ENCODING 922
SWIDTH 497 0
DWIDTH 7 0
BBX 7 13 0 -2
BITMAP
00
00
42
44
48
50
60
A0
90
88
84
00
00
ENDCHAR

STARTCHAR Lambda
ENCODING 923
SWIDTH 497 0
DWIDTH 7 0
BBX 7 13 0 -2
BITMAP
00
00
18
18
18
28
28
44
44
84
84
00
00
ENDCHAR

STARTCHAR Mu
ENCODING 924
SWIDTH 497 0
DWIDTH 7 0
BBX 7 13 0 -2
BITMAP
00
00
42
66
66
5A
5A
84
84
84
84
00
00
ENDCHAR

STARTCHAR Nu
ENCODING 925
SWIDTH 497 0
DWIDTH 7 0
BBX 7 13 0 -2
BITMAP
00
00
42
42
62
52
4A
8C
84
84
84
00
00
ENDCHAR

STARTCHAR Xi
ENCODING 926
SWIDTH 497 0
DWIDTH 7 0
BBX 7 13 0 -2
BITMAP
00
00
7E
00
00
00
3C
00
00
00
FC
00
00
ENDCHAR

STARTCHAR Omicron
ENCODING 927
SWIDTH 497 0
DWIDTH 7 0
BBX 7 13 0 -2
BITMAP
00
00
3C
42
42
42
42
84
84
84
78
00
00
ENDCHAR

STARTCHAR Pi
ENCODING 928
SWIDTH 497 0
DWIDTH 7 0
BBX 7 13 0 -2
BITMAP
00
00
FC
48
48
48
48
90
90
90
90
00
00
ENDCHAR

STARTCHAR Rho
ENCODING 929
SWIDTH 497 0
DWIDTH 7 0
BBX 7 13 0 -2
BITMAP
00
00
7C
42
42
42
7C
80
80
80
80
00
00
ENDCHAR

STARTCHAR Sigma
ENCODING 931
SWIDTH 497 0
DWIDTH 7 0
BBX 7 13 0 -2
BITMAP
00
00
7E
40
20
10
10
20
40
80
FC
00
00
ENDCHAR

STARTCHAR Tau
ENCODING 932
SWIDTH 497 0
DWIDTH 7 0
BBX 7 13 0 -2
BITMAP
00
00
7C
10
10
10
10
20
20
20
20
00
00
ENDCHAR

STARTCHAR Upsilon
ENCODING 933
SWIDTH 497 0
DWIDTH 7 0
BBX 7 13 0 -2
BITMAP
00
00
44
44
28
28
10
10
10
20
20
00
00
ENDCHAR

STARTCHAR Phi
ENCODING 934
SWIDTH 497 0
DWIDTH 7 0
BBX 7 13 0 -2
BITMAP
00
00
10
38
54
54
54
A8
A8
70
20
00
00
ENDCHAR

STARTCHAR Chi
ENCODING 935
SWIDTH 497 0
DWIDTH 7 0
BBX 7 13 0 -2
BITMAP
00
00
42
42
24
24
18
18
28
44
84
00
00
ENDCHAR

STARTCHAR Psi
ENCODING 936
SWIDTH 497 0
DWIDTH 7 0
BBX 7 13 0 -2
BITMAP
00
00
54
54
54
54
A8
A8
70
20
20
00
00
ENDCHAR

STARTCHAR Omega
ENCODING 937
SWIDTH 497 0
DWIDTH 7 0
BBX 7 13 0 -2
BITMAP
00
00
3C
42
42
42
84
84
48
48
CC
00
00
ENDCHAR

STARTCHAR Iotadieresis
ENCODING 938
SWIDTH 497 0
DWIDTH 7 0
BBX 7 13 0 -2
BITMAP
00
44
44
00
7C
10
10
20
20
20
F8
00
00
ENDCHAR

STARTCHAR Upsilondieresis
ENCODING 939
SWIDTH 497 0
DWIDTH 7 0
BBX 7 13 0 -2
BITMAP
00
44
44
00
44
44
28
10
10
20
20
00
00
ENDCHAR

STARTCHAR alphatonos
ENCODING 940
SWIDTH 497 0
DWIDTH 7 0
BBX 7 13 0 -2
BITMAP
00
00
04
08
00
3A
44
84
8C
94
64
00
00
ENDCHAR

STARTCHAR epsilontonos
ENCODING 941
SWIDTH 497 0
DWIDTH 7 0
BBX 7 13 0 -2
BITMAP
00
00
04
08
00
3C
42
70
80
84
78
00
00
ENDCHAR

STARTCHAR etatonos
ENCODING 942
SWIDTH 497 0
DWIDTH 7 0
BBX 7 13 0 -2
BITMAP
00
00
04
08
00
5C
62
42
84
84
84
04
04
ENDCHAR

STARTCHAR iotatonos
ENCODING 943
SWIDTH 497 0
DWIDTH 7 0
BBX 7 13 0 -2
BITMAP
00
00
10
20
00
20
20
40
40
48
30
00
00
ENDCHAR

STARTCHAR upsilondieresistonos
ENCODING 944
SWIDTH 497 0
DWIDTH 7 0
BBX 7 13 0 -2
BITMAP
00
08
52
42
00
42
42
84
84
84
78
00
00
ENDCHAR

STARTCHAR alpha
ENCODING 945
SWIDTH 497 0
DWIDTH 7 0
BBX 7 13 0 -2
BITMAP
00
00
00
00
00
3A
44
84
8C
94
64
00
00
ENDCHAR

STARTCHAR beta
ENCODING 946
SWIDTH 497 0
DWIDTH 7 0
BBX 7 13 0 -2
BITMAP
00
00
38
44
44
7C
42
42
84
C4
B8
80
80
ENDCHAR

STARTCHAR gamma
ENCODING 947
SWIDTH 497 0
DWIDTH 7 0
BBX 7 13 0 -2
BITMAP
00
00
00
00
00
44
44
48
50
20
20
20
20
ENDCHAR

STARTCHAR delta
ENCODING 948
SWIDTH 497 0
DWIDTH 7 0
BBX 7 13 0 -2
BITMAP
00
00
3C
42
20
3C
42
42
84
84
78
00
00
ENDCHAR

STARTCHAR epsilon
ENCODING 949
SWIDTH 497 0
DWIDTH 7 0
BBX 7 13 0 -2
BITMAP
00
00
00
00
00
3C
42
70
80
84
78
00
00
ENDCHAR

STARTCHAR zeta
ENCODING 950
SWIDTH 497 0
DWIDTH 7 0
BBX 7 13 0 -2
BITMAP
00
00
7E
10
20
20
40
80
80
80
78
04
18
ENDCHAR

STARTCHAR eta
ENCODING 951
SWIDTH 497 0
DWIDTH 7 0
BBX 7 13 0 -2
BITMAP
00
00
00
00
00
5C
62
42
84
84
84
04
04
ENDCHAR

STARTCHAR theta
ENCODING 952
SWIDTH 497 0
DWIDTH 7 0
BBX 7 13 0 -2
BITMAP
00
00
38
44
44
44
78
88
88
88
70
00
00
ENDCHAR

STARTCHAR iota
ENCODING 953
SWIDTH 497 0
DWIDTH 7 0
BBX 7 13 0 -2
BITMAP
00
00
00
00
00
20
20
40
40
48
30
00
00
ENDCHAR

STARTCHAR kappa
ENCODING 954
SWIDTH 497 0
DWIDTH 7 0
BBX 7 13 0 -2
BITMAP
00
00
00
00
00
44
48
50
60
90
88
00
00
ENDCHAR

STARTCHAR lambda
ENCODING 955
SWIDTH 497 0
DWIDTH 7 0
BBX 7 13 0 -2
BITMAP
00
00
3C
42
02
3A
46
42
84
84
84
00
00
ENDCHAR

STARTCHAR mu
ENCODING 956
SWIDTH 497 0
DWIDTH 7 0
BBX 7 13 0 -2
BITMAP
00
00
00
00
00
42
42
42
84
CC
B4
80
80
ENDCHAR

STARTCHAR nu
ENCODING 957
SWIDTH 497 0
DWIDTH 7 0
BBX 7 13 0 -2
BITMAP
00
00
00
00
00
44
44
48
50
50
20
00
00
ENDCHAR

STARTCHAR xi
ENCODING 958
SWIDTH 497 0
DWIDTH 7 0
BBX 7 13 0 -2
BITMAP
00
00
7E
10
20
20
1C
60
80
80
78
04
18
ENDCHAR

STARTCHAR omicron
ENCODING 959
SWIDTH 497 0
DWIDTH 7 0
BBX 7 13 0 -2
BITMAP
00
00
00
00
00
3C
42
42
84
84
78
00
00
ENDCHAR

STARTCHAR pi
ENCODING 960
SWIDTH 497 0
DWIDTH 7 0
BBX 7 13 0 -2
BITMAP
00
00
00
00
00
FC
48
48
90
90
90
00
00
ENDCHAR

STARTCHAR rho
ENCODING 961
SWIDTH 497 0
DWIDTH 7 0
BBX 7 13 0 -2
BITMAP
00
00
00
00
00
3C
42
42
84
C4
B8
80
80
ENDCHAR

STARTCHAR sigma1
ENCODING 962
SWIDTH 497 0
DWIDTH 7 0
BBX 7 13 0 -2
BITMAP
00
00
00
00
00
3C
42
80
80
80
78
04
18
ENDCHAR

STARTCHAR sigma
ENCODING 963
SWIDTH 497 0
DWIDTH 7 0
BBX 7 13 0 -2
BITMAP
00
00
00
00
00
3E
48
44
84
84
78
00
00
ENDCHAR

STARTCHAR tau
ENCODING 964
SWIDTH 497 0
DWIDTH 7 0
BBX 7 13 0 -2
BITMAP
00
00
00
00
00
7C
10
20
20
28
10
00
00
ENDCHAR

STARTCHAR upsilon
ENCODING 965
SWIDTH 497 0
DWIDTH 7 0
BBX 7 13 0 -2
BITMAP
00
00
00
00
00
42
42
42
84
84
78
00
00
ENDCHAR

STARTCHAR phi
ENCODING 966
SWIDTH 497 0
DWIDTH 7 0
BBX 7 13 0 -2
BITMAP
00
00
00
00
00
28
54
54
A8
A8
70
20
20
ENDCHAR

STARTCHAR chi
ENCODING 967
SWIDTH 497 0
DWIDTH 7 0
BBX 7 13 0 -2
BITMAP
00
00
00
00
00
84
48
50
20
20
50
50
88
ENDCHAR

STARTCHAR psi
ENCODING 968
SWIDTH 497 0
DWIDTH 7 0
BBX 7 13 0 -2
BITMAP
00
00
00
00
00
54
54
54
A8
A8
70
20
20
ENDCHAR

STARTCHAR omega
ENCODING 969
SWIDTH 497 0
DWIDTH 7 0
BBX 7 13 0 -2
BITMAP
00
00
00
00
00
44
54
54
A8
A8
50
00
00
ENDCHAR

STARTCHAR iotadieresis
ENCODING 970
SWIDTH 497 0
DWIDTH 7 0
BBX 7 13 0 -2
BITMAP
00
00
84
84
00
20
20
40
40
48
30
00
00
ENDCHAR

STARTCHAR upsilondieresis
ENCODING 971
SWIDTH 497 0
DWIDTH 7 0
BBX 7 13 0 -2
BITMAP
00
00
42
42
00
42
42
42
84
84
78
00
00
ENDCHAR

STARTCHAR omicrontonos
ENCODING 972
SWIDTH 497 0
DWIDTH 7 0
BBX 7 13 0 -2
BITMAP
00
00
04
08
00
3C
42
42
84
84
78
00
00
ENDCHAR

STARTCHAR upsilontonos
ENCODING 973
SWIDTH 497 0
DWIDTH 7 0
BBX 7 13 0 -2
BITMAP
00
00
04
08
00
42
42
42
84
84
78
00
00
ENDCHAR

STARTCHAR omegatonos
ENCODING 974
SWIDTH 497 0
DWIDTH 7 0
BBX 7 13 0 -2
BITMAP
00
00
08
10
00
44
54
54
A8
A8
50
00
00
ENDCHAR

STARTCHAR uni03D0
ENCODING 976
SWIDTH 497 0
DWIDTH 7 0
BBX 7 13 0 -2
BITMAP
00
00
18
24
44
58
64
84
84
48
30
00
00
ENDCHAR

STARTCHAR theta1
ENCODING 977
SWIDTH 497 0
DWIDTH 7 0
BBX 7 13 0 -2
BITMAP
00
00
38
44
44
3E
04
44
88
88
70
00
00
ENDCHAR

STARTCHAR Upsilon1
ENCODING 978
SWIDTH 497 0
DWIDTH 7 0
BBX 7 13 0 -2
BITMAP
00
00
28
54
10
10
10
20
20
20
20
00
00
ENDCHAR

STARTCHAR uni03D3
ENCODING 979
SWIDTH 497 0
DWIDTH 7 0
BBX 7 13 0 -2
BITMAP
00
00
28
54
10
50
50
20
20
20
20
00
00
ENDCHAR

STARTCHAR uni03D4
ENCODING 980
SWIDTH 497 0
DWIDTH 7 0
BBX 7 13 0 -2
BITMAP
00
44
44
00
28
54
10
10
20
20
20
00
00
ENDCHAR

STARTCHAR phi1
ENCODING 981
SWIDTH 497 0
DWIDTH 7 0
BBX 7 13 0 -2
BITMAP
00
00
00
10
10
38
54
54
A8
A8
70
20
20
ENDCHAR

STARTCHAR omega1
ENCODING 982
SWIDTH 497 0
DWIDTH 7 0
BBX 7 13 0 -2
BITMAP
00
00
00
00
00
7C
44
54
A8
A8
50
00
00
ENDCHAR

STARTCHAR uni03D7
ENCODING 983
SWIDTH 497 0
DWIDTH 7 0
BBX 7 13 0 -2
BITMAP
00
00
04
08
00
42
44
48
70
48
84
04
38
ENDCHAR

STARTCHAR uni03DA
ENCODING 986
SWIDTH 497 0
DWIDTH 7 0
BBX 7 13 0 -2
BITMAP
00
00
1C
22
40
40
80
80
80
78
04
08
00
ENDCHAR

STARTCHAR uni03DB
ENCODING 987
SWIDTH 497 0
DWIDTH 7 0
BBX 7 13 0 -2
BITMAP
00
00
00
00
02
3C
40
80
80
80
78
04
18
ENDCHAR

STARTCHAR uni03DC
ENCODING 988
SWIDTH 497 0
DWIDTH 7 0
BBX 7 13 0 -2
BITMAP
00
00
7E
40
40
40
78
80
80
80
80
00
00
ENDCHAR

STARTCHAR uni03DD
ENCODING 989
SWIDTH 497 0
DWIDTH 7 0
BBX 7 13 0 -2
BITMAP
00
00
00
00
00
7C
40
80
F0
80
80
80
80
ENDCHAR

STARTCHAR uni03DE
ENCODING 990
SWIDTH 497 0
DWIDTH 7 0
BBX 7 13 0 -2
BITMAP
00
00
40
42
46
4A
92
A4
C4
84
04
00
00
ENDCHAR

STARTCHAR uni03DF
ENCODING 991
SWIDTH 497 0
DWIDTH 7 0
BBX 7 13 0 -2
BITMAP
00
00
10
10
20
20
40
FC
04
08
08
10
10
ENDCHAR

STARTCHAR uni03F0
ENCODING 1008
SWIDTH 497 0
DWIDTH 7 0
BBX 7 13 0 -2
BITMAP
00
00
00
00
00
42
44
48
70
48
84
00
00
ENDCHAR

STARTCHAR uni03F1
ENCODING 1009
SWIDTH 497 0
DWIDTH 7 0
BBX 7 13 0 -2
BITMAP
00
00
00
00
00
3C
42
42
84
C4
B8
80
78
ENDCHAR

STARTCHAR uni03F2
ENCODING 1010
SWIDTH 497 0
DWIDTH 7 0
BBX 7 13 0 -2
BITMAP
00
00
00
00
00
3C
42
80
80
84
78
00
00
ENDCHAR

STARTCHAR uni03F3
ENCODING 1011
SWIDTH 497 0
DWIDTH 7 0
BBX 7 13 0 -2
BITMAP
00
00
00
04
00
0C
04
04
08
08
88
88
70
ENDCHAR

STARTCHAR uni03F4
ENCODING 1012
SWIDTH 497 0
DWIDTH 7 0
BBX 7 13 0 -2
BITMAP
00
00
3C
42
42
42
7C
84
84
84
78
00
00
ENDCHAR

STARTCHAR uni03F5
ENCODING 1013
SWIDTH 497 0
DWIDTH 7 0
BBX 7 13 0 -2
BITMAP
00
00
00
00
00
3C
40
F0
80
80
78
00
00
ENDCHAR

STARTCHAR uni0400
ENCODING 1024
SWIDTH 497 0
DWIDTH 7 0
BBX 7 13 0 -2
BITMAP
00
10
08
00
7E
40
40
70
80
80
FC
00
00
ENDCHAR

STARTCHAR afii10023
ENCODING 1025
SWIDTH 497 0
DWIDTH 7 0
BBX 7 13 0 -2
BITMAP
00
24
24
00
7E
40
40
70
80
80
FC
00
00
ENDCHAR

STARTCHAR afii10051
ENCODING 1026
SWIDTH 497 0
DWIDTH 7 0
BBX 7 13 0 -2
BITMAP
00
00
F8
20
20
20
38
24
24
48
48
08
30
ENDCHAR

STARTCHAR afii10052
ENCODING 1027
SWIDTH 497 0
DWIDTH 7 0
BBX 7 13 0 -2
BITMAP
08
10
00
7E
40
40
40
80
80
80
80
00
00
ENDCHAR

STARTCHAR afii10053
ENCODING 1028
SWIDTH 497 0
DWIDTH 7 0
BBX 7 13 0 -2
BITMAP
00
00
1C
22
40
40
78
80
80
44
38
00
00
ENDCHAR

STARTCHAR afii10054
ENCODING 1029
SWIDTH 497 0
DWIDTH 7 0
BBX 7 13 0 -2
BITMAP
00
00
3C
42
40
40
38
04
04
84
78
00
00
ENDCHAR

STARTCHAR afii10055
ENCODING 1030
SWIDTH 497 0
DWIDTH 7 0
BBX 7 13 0 -2
BITMAP
00
00
7C
10
10
10
10
20
20
20
F8
00
00
ENDCHAR

STARTCHAR afii10056
ENCODING 1031
SWIDTH 497 0
DWIDTH 7 0
BBX 7 13 0 -2
BITMAP
00
44
44
00
7C
10
10
20
20
20
F8
00
00
ENDCHAR

STARTCHAR afii10057
ENCODING 1032
SWIDTH 497 0
DWIDTH 7 0
BBX 7 13 0 -2
BITMAP
00
00
0E
04
04
04
04
08
08
88
70
00
00
ENDCHAR

STARTCHAR afii10058
ENCODING 1033
SWIDTH 497 0
DWIDTH 7 0
BBX 7 13 0 -2
BITMAP
00
00
38
28
28
28
2C
54
54
54
98
00
00
ENDCHAR

STARTCHAR afii10059
ENCODING 1034
SWIDTH 497 0
DWIDTH 7 0
BBX 7 13 0 -2
BITMAP
00
00
48
48
48
48
7C
94
94
94
98
00
00
ENDCHAR

STARTCHAR afii10060
ENCODING 1035
SWIDTH 497 0
DWIDTH 7 0
BBX 7 13 0 -2
BITMAP
00
00
F8
20
20
20
38
24
24
48
48
00
00
ENDCHAR

STARTCHAR afii10061
ENCODING 1036
SWIDTH 497 0
DWIDTH 7 0
BBX 7 13 0 -2
BITMAP
08
10
42
44
48
50
60
A0
90
88
84
00
00
ENDCHAR

STARTCHAR uni040D
ENCODING 1037
SWIDTH 497 0
DWIDTH 7 0
BBX 7 13 0 -2
BITMAP
10
08
42
42
46
4A
52
A4
C4
84
84
00
00
ENDCHAR

STARTCHAR afii10062
ENCODING 1038
SWIDTH 497 0
DWIDTH 7 0
BBX 7 13 0 -2
BITMAP
24
18
00
42
42
42
3C
04
04
84
78
00
00
ENDCHAR

STARTCHAR afii10145
ENCODING 1039
SWIDTH 497 0
DWIDTH 7 0
BBX 7 13 0 -2
BITMAP
00
00
44
44
44
44
44
88
88
88
F8
20
20
ENDCHAR

STARTCHAR afii10017
ENCODING 1040
SWIDTH 497 0
DWIDTH 7 0
BBX 7 13 0 -2
BITMAP
00
00
18
24
42
42
42
7C
84
84
84
00
00
ENDCHAR

STARTCHAR afii10018
ENCODING 1041
SWIDTH 497 0
DWIDTH 7 0
BBX 7 13 0 -2
BITMAP
00
00
7C
40
40
40
78
84
84
84
F8
00
00
ENDCHAR

STARTCHAR afii10019
ENCODING 1042
SWIDTH 497 0
DWIDTH 7 0
BBX 7 13 0 -2
BITMAP
00
00
7C
42
42
42
7C
84
84
84
F8
00
00
ENDCHAR

STARTCHAR afii10020
ENCODING 1043
SWIDTH 497 0
DWIDTH 7 0
BBX 7 13 0 -2
BITMAP
00
00
7E
40
40
40
40
80
80
80
80
00
00
ENDCHAR

STARTCHAR afii10021
ENCODING 1044
SWIDTH 497 0
DWIDTH 7 0
BBX 7 13 0 -2
BITMAP
00
00
1C
14
14
24
24
48
48
48
FC
84
00
ENDCHAR

STARTCHAR afii10022
ENCODING 1045
SWIDTH 497 0
DWIDTH 7 0
BBX 7 13 0 -2
BITMAP
00
00
7E
40
40
40
78
80
80
80
FC
00
00
ENDCHAR

STARTCHAR afii10024
ENCODING 1046
SWIDTH 497 0
DWIDTH 7 0
BBX 7 13 0 -2
BITMAP
00
00
54
54
54
54
78
A8
A8
A8
A8
00
00
ENDCHAR

STARTCHAR afii10025
ENCODING 1047
SWIDTH 497 0
DWIDTH 7 0
BBX 7 13 0 -2
BITMAP
00
00
3C
42
02
02
1C
04
04
84
78
00
00
ENDCHAR

STARTCHAR afii10026
ENCODING 1048
SWIDTH 497 0
DWIDTH 7 0
BBX 7 13 0 -2
BITMAP
00
00
42
42
46
4A
52
A4
C4
84
84
00
00
ENDCHAR

STARTCHAR afii10027
ENCODING 1049
SWIDTH 497 0
DWIDTH 7 0
BBX 7 13 0 -2
BITMAP
24
18
42
42
46
4A
52
A4
C4
84
84
00
00
ENDCHAR

STARTCHAR afii10028
ENCODING 1050
SWIDTH 497 0
DWIDTH 7 0
BBX 7 13 0 -2
BITMAP
00
00
42
44
48
50
60
A0
90
88
84
00
00
ENDCHAR

STARTCHAR afii10029
ENCODING 1051
SWIDTH 497 0
DWIDTH 7 0
BBX 7 13 0 -2
BITMAP
00
00
3E
22
22
22
22
44
44
44
84
00
00
ENDCHAR

STARTCHAR afii10030
ENCODING 1052
SWIDTH 497 0
DWIDTH 7 0
BBX 7 13 0 -2
BITMAP
00
00
42
66
66
5A
5A
84
84
84
84
00
00
ENDCHAR

STARTCHAR afii10031
ENCODING 1053
SWIDTH 497 0
DWIDTH 7 0
BBX 7 13 0 -2
BITMAP
00
00
42
42
42
42
7C
84
84
84
84
00
00
ENDCHAR

STARTCHAR afii10032
ENCODING 1054
SWIDTH 497 0
DWIDTH 7 0
BBX 7 13 0 -2
BITMAP
00
00
3C
42
42
42
42
84
84
84
78
00
00
ENDCHAR

STARTCHAR afii10033
ENCODING 1055
SWIDTH 497 0
DWIDTH 7 0
BBX 7 13 0 -2
BITMAP
00
00
7E
42
42
42
42
84
84
84
84
00
00
ENDCHAR

STARTCHAR afii10034
ENCODING 1056
SWIDTH 497 0
DWIDTH 7 0
BBX 7 13 0 -2
BITMAP
00
00
7C
42
42
42
7C
80
80
80
80
00
00
ENDCHAR

STARTCHAR afii10035
ENCODING 1057
SWIDTH 497 0
DWIDTH 7 0
BBX 7 13 0 -2
BITMAP
00
00
3C
42
40
40
40
80
80
84
78
00
00
ENDCHAR

STARTCHAR afii10036
ENCODING 1058
SWIDTH 497 0
DWIDTH 7 0
BBX 7 13 0 -2
BITMAP
00
00
7C
10
10
10
10
20
20
20
20
00
00
ENDCHAR

STARTCHAR afii10037
ENCODING 1059
SWIDTH 497 0
DWIDTH 7 0
BBX 7 13 0 -2
BITMAP
00
00
42
42
42
42
3C
04
04
84
78
00
00
ENDCHAR

STARTCHAR afii10038
ENCODING 1060
SWIDTH 497 0
DWIDTH 7 0
BBX 7 13 0 -2
BITMAP
00
10
38
54
54
54
54
A8
A8
A8
70
20
00
ENDCHAR

STARTCHAR afii10039
ENCODING 1061
SWIDTH 497 0
DWIDTH 7 0
BBX 7 13 0 -2
BITMAP
00
00
42
42
24
28
10
28
48
84
84
00
00
ENDCHAR

STARTCHAR afii10040
ENCODING 1062
SWIDTH 497 0
DWIDTH 7 0
BBX 7 13 0 -2
BITMAP
00
00
44
44
44
44
44
88
88
88
FC
04
04
ENDCHAR

STARTCHAR afii10041
ENCODING 1063
SWIDTH 497 0
DWIDTH 7 0
BBX 7 13 0 -2
BITMAP
00
00
42
42
84
84
7C
04
08
08
08
00
00
ENDCHAR

STARTCHAR afii10042
ENCODING 1064
SWIDTH 497 0
DWIDTH 7 0
BBX 7 13 0 -2
BITMAP
00
00
54
54
54
54
54
A8
A8
A8
F8
00
00
ENDCHAR

STARTCHAR afii10043
ENCODING 1065
SWIDTH 497 0
DWIDTH 7 0
BBX 7 13 0 -2
BITMAP
00
00
54
54
54
54
54
A8
A8
A8
FC
04
04
ENDCHAR

STARTCHAR afii10044
ENCODING 1066
SWIDTH 497 0
DWIDTH 7 0
BBX 7 13 0 -2
BITMAP
00
00
70
10
10
10
18
24
24
24
38
00
00
ENDCHAR

STARTCHAR afii10045
ENCODING 1067
SWIDTH 497 0
DWIDTH 7 0
BBX 7 13 0 -2
BITMAP
00
00
42
42
42
42
72
94
94
94
E4
00
00
ENDCHAR

STARTCHAR afii10046
ENCODING 1068
SWIDTH 497 0
DWIDTH 7 0
BBX 7 13 0 -2
BITMAP
00
00
20
20
20
20
38
44
44
44
78
00
00
ENDCHAR

STARTCHAR afii10047
ENCODING 1069
SWIDTH 497 0
DWIDTH 7 0
BBX 7 13 0 -2
BITMAP
00
00
38
44
02
02
1C
04
04
88
70
00
00
ENDCHAR

STARTCHAR afii10048
ENCODING 1070
SWIDTH 497 0
DWIDTH 7 0
BBX 7 13 0 -2
BITMAP
00
00
4C
52
52
52
72
A4
A4
A4
98
00
00
ENDCHAR

STARTCHAR afii10049
ENCODING 1071
SWIDTH 497 0
DWIDTH 7 0
BBX 7 13 0 -2
BITMAP
00
00
3E
42
42
42
3C
14
24
44
84
00
00
ENDCHAR

STARTCHAR afii10065
ENCODING 1072
SWIDTH 497 0
DWIDTH 7 0
BBX 7 13 0 -2
BITMAP
00
00
00
00
00
3C
02
7C
84
8C
74
00
00
ENDCHAR

STARTCHAR afii10066
ENCODING 1073
SWIDTH 497 0
DWIDTH 7 0
BBX 7 13 0 -2
BITMAP
00
00
02
3C
40
5C
62
42
84
84
78
00
00
ENDCHAR

STARTCHAR afii10067
ENCODING 1074
SWIDTH 497 0
DWIDTH 7 0
BBX 7 13 0 -2
BITMAP
00
00
00
00
00
7C
42
7C
84
84
F8
00
00
ENDCHAR

STARTCHAR afii10068
ENCODING 1075
SWIDTH 497 0
DWIDTH 7 0
BBX 7 13 0 -2
BITMAP
00
00
00
00
00
7E
40
40
80
80
80
00
00
ENDCHAR

STARTCHAR afii10069
ENCODING 1076
SWIDTH 497 0
DWIDTH 7 0
BBX 7 13 0 -2
BITMAP
00
00
00
00
00
1C
24
24
48
48
FC
84
00
ENDCHAR

STARTCHAR afii10070
ENCODING 1077
SWIDTH 497 0
DWIDTH 7 0
BBX 7 13 0 -2
BITMAP
00
00
00
00
00
3C
42
7C
80
84
78
00
00
ENDCHAR

STARTCHAR afii10072
ENCODING 1078
SWIDTH 497 0
DWIDTH 7 0
BBX 7 13 0 -2
BITMAP
00
00
00
00
00
54
54
78
A8
A8
A8
00
00
ENDCHAR

STARTCHAR afii10073
ENCODING 1079
SWIDTH 497 0
DWIDTH 7 0
BBX 7 13 0 -2
BITMAP
00
00
00
00
00
3C
42
38
04
84
78
00
00
ENDCHAR

STARTCHAR afii10074
ENCODING 1080
SWIDTH 497 0
DWIDTH 7 0
BBX 7 13 0 -2
BITMAP
00
00
00
00
00
42
46
4A
B4
C4
84
00
00
ENDCHAR

STARTCHAR afii10075
ENCODING 1081
SWIDTH 497 0
DWIDTH 7 0
BBX 7 13 0 -2
BITMAP
00
00
24
18
00
42
46
4A
B4
C4
84
00
00
ENDCHAR

STARTCHAR afii10076
ENCODING 1082
SWIDTH 497 0
DWIDTH 7 0
BBX 7 13 0 -2
BITMAP
00
00
00
00
00
42
44
78
88
84
84
00
00
ENDCHAR

STARTCHAR afii10077
ENCODING 1083
SWIDTH 497 0
DWIDTH 7 0
BBX 7 13 0 -2
BITMAP
00
00
00
00
00
1E
22
22
44
44
84
00
00
ENDCHAR

STARTCHAR afii10078
ENCODING 1084
SWIDTH 497 0
DWIDTH 7 0
BBX 7 13 0 -2
BITMAP
00
00
00
00
00
44
6C
54
88
88
88
00
00
ENDCHAR

STARTCHAR afii10079
ENCODING 1085
SWIDTH 497 0
DWIDTH 7 0
BBX 7 13 0 -2
BITMAP
00
00
00
00
00
42
42
7C
84
84
84
00
00
ENDCHAR

STARTCHAR afii10080
ENCODING 1086
SWIDTH 497 0
DWIDTH 7 0
BBX 7 13 0 -2
BITMAP
00
00
00
00
00
3C
42
42
84
84
78
00
00
ENDCHAR

STARTCHAR afii10081
ENCODING 1087
SWIDTH 497 0
DWIDTH 7 0
BBX 7 13 0 -2
BITMAP
00
00
00
00
00
7E
42
42
84
84
84
00
00
ENDCHAR

STARTCHAR afii10082
ENCODING 1088
SWIDTH 497 0
DWIDTH 7 0
BBX 7 13 0 -2
BITMAP
00
00
00
00
00
5C
62
42
84
C4
B8
80
80
ENDCHAR

STARTCHAR afii10083
ENCODING 1089
SWIDTH 497 0
DWIDTH 7 0
BBX 7 13 0 -2
BITMAP
00
00
00
00
00
3C
42
80
80
84
78
00
00
ENDCHAR

STARTCHAR afii10084
ENCODING 1090
SWIDTH 497 0
DWIDTH 7 0
BBX 7 13 0 -2
BITMAP
00
00
00
00
00
7C
10
10
20
20
20
00
00
ENDCHAR

STARTCHAR afii10085
ENCODING 1091
SWIDTH 497 0
DWIDTH 7 0
BBX 7 13 0 -2
BITMAP
00
00
00
00
00
42
42
84
8C
74
04
84
78
ENDCHAR

STARTCHAR afii10086
ENCODING 1092
SWIDTH 497 0
DWIDTH 7 0
BBX 7 13 0 -2
BITMAP
00
00
00
10
10
38
54
54
A8
A8
70
20
20
ENDCHAR

STARTCHAR afii10087
ENCODING 1093
SWIDTH 497 0
DWIDTH 7 0
BBX 7 13 0 -2
BITMAP
00
00
00
00
00
42
24
18
30
48
84
00
00
ENDCHAR

STARTCHAR afii10088
ENCODING 1094
SWIDTH 497 0
DWIDTH 7 0
BBX 7 13 0 -2
BITMAP
00
00
00
00
00
44
44
44
88
88
FC
04
04
ENDCHAR

STARTCHAR afii10089
ENCODING 1095
SWIDTH 497 0
DWIDTH 7 0
BBX 7 13 0 -2
BITMAP
00
00
00
00
00
42
42
84
7C
04
04
00
00
ENDCHAR

STARTCHAR afii10090
ENCODING 1096
SWIDTH 497 0
DWIDTH 7 0
BBX 7 13 0 -2
BITMAP
00
00
00
00
00
54
54
54
A8
A8
F8
00
00
ENDCHAR

STARTCHAR afii10091
ENCODING 1097
SWIDTH 497 0
DWIDTH 7 0
BBX 7 13 0 -2
BITMAP
00
00
00
00
00
54
54
54
A8
A8
FC
04
04
ENDCHAR

STARTCHAR afii10092
ENCODING 1098
SWIDTH 497 0
DWIDTH 7 0
BBX 7 13 0 -2
BITMAP
00
00
00
00
00
70
10
18
24
24
38
00
00
ENDCHAR

STARTCHAR afii10093
ENCODING 1099
SWIDTH 497 0
DWIDTH 7 0
BBX 7 13 0 -2
BITMAP
00
00
00
00
00
42
42
64
94
94
E4
00
00
ENDCHAR

STARTCHAR afii10094
ENCODING 1100
SWIDTH 497 0
DWIDTH 7 0
BBX 7 13 0 -2
BITMAP
00
00
00
00
00
20
20
38
44
44
78
00
00
ENDCHAR

STARTCHAR afii10095
ENCODING 1101
SWIDTH 497 0
DWIDTH 7 0
BBX 7 13 0 -2
BITMAP
00
00
00
00
00
3C
42
1C
04
84
78
00
00
ENDCHAR

STARTCHAR afii10096
ENCODING 1102
SWIDTH 497 0
DWIDTH 7 0
BBX 7 13 0 -2
BITMAP
00
00
00
00
00
4C
52
72
A4
A4
98
00
00
ENDCHAR

STARTCHAR afii10097
ENCODING 1103
SWIDTH 497 0
DWIDTH 7 0
BBX 7 13 0 -2
BITMAP
00
00
00
00
00
3E
42
42
3C
44
84
00
00
ENDCHAR

STARTCHAR uni0450
ENCODING 1104
SWIDTH 497 0
DWIDTH 7 0
BBX 7 13 0 -2
BITMAP
00
00
10
08
00
3C
42
7C
80
84
78
00
00
ENDCHAR

STARTCHAR afii10071
ENCODING 1105
SWIDTH 497 0
DWIDTH 7 0
BBX 7 13 0 -2
BITMAP
00
00
24
24
00
3C
42
7C
80
84
78
00
00
ENDCHAR

STARTCHAR afii10099
ENCODING 1106
SWIDTH 497 0
DWIDTH 7 0
BBX 7 13 0 -2
BITMAP
00
00
00
40
40
F0
40
78
44
88
88
08
30
ENDCHAR

STARTCHAR afii10100
ENCODING 1107
SWIDTH 497 0
DWIDTH 7 0
BBX 7 13 0 -2
BITMAP
00
00
08
10
00
7E
40
40
80
80
80
00
00
ENDCHAR

STARTCHAR afii10101
ENCODING 1108
SWIDTH 497 0
DWIDTH 7 0
BBX 7 13 0 -2
BITMAP
00
00
00
00
00
3C
42
60
80
84
78
00
00
ENDCHAR

STARTCHAR afii10102
ENCODING 1109
SWIDTH 497 0
DWIDTH 7 0
BBX 7 13 0 -2
BITMAP
00
00
00
00
00
3C
42
20
18
84
78
00
00
ENDCHAR

STARTCHAR afii10103
ENCODING 1110
SWIDTH 497 0
DWIDTH 7 0
BBX 7 13 0 -2
BITMAP
00
00
00
08
00
18
08
08
10
10
7C
00
00
ENDCHAR

STARTCHAR afii10104
ENCODING 1111
SWIDTH 497 0
DWIDTH 7 0
BBX 7 13 0 -2
BITMAP
00
00
24
24
00
18
08
08
10
10
7C
00
00
ENDCHAR

STARTCHAR afii10105
ENCODING 1112
SWIDTH 497 0
DWIDTH 7 0
BBX 7 13 0 -2
BITMAP
00
00
00
04
00
0C
04
04
08
08
88
88
70
ENDCHAR

STARTCHAR afii10106
ENCODING 1113
SWIDTH 497 0
DWIDTH 7 0
BBX 7 13 0 -2
BITMAP
00
00
00
00
00
38
28
4C
52
52
9C
00
00
ENDCHAR

STARTCHAR afii10107
ENCODING 1114
SWIDTH 497 0
DWIDTH 7 0
BBX 7 13 0 -2
BITMAP
00
00
00
00
00
48
48
78
94
94
98
00
00
ENDCHAR

STARTCHAR afii10108
ENCODING 1115
SWIDTH 497 0
DWIDTH 7 0
BBX 7 13 0 -2
BITMAP
00
00
00
40
40
F0
40
78
44
88
88
00
00
ENDCHAR

STARTCHAR afii10109
ENCODING 1116
SWIDTH 497 0
DWIDTH 7 0
BBX 7 13 0 -2
BITMAP
00
00
08
10
00
42
4C
70
88
84
84
00
00
ENDCHAR

STARTCHAR uni045D
ENCODING 1117
SWIDTH 497 0
DWIDTH 7 0
BBX 7 13 0 -2
BITMAP
00
00
10
08
00
42
46
4A
B4
C4
84
00
00
ENDCHAR

STARTCHAR afii10110
ENCODING 1118
SWIDTH 497 0
DWIDTH 7 0
BBX 7 13 0 -2
BITMAP
00
00
24
18
00
42
42
84
8C
74
04
84
78
ENDCHAR

STARTCHAR afii10193
ENCODING 1119
SWIDTH 497 0
DWIDTH 7 0
BBX 7 13 0 -2
BITMAP
00
00
00
00
00
44
44
44
88
88
F8
20
20
ENDCHAR

STARTCHAR uni0460
ENCODING 1120
SWIDTH 497 0
DWIDTH 7 0
BBX 7 13 0 -2
BITMAP
00
00
24
42
42
42
42
84
84
B4
48
00
00
ENDCHAR

STARTCHAR uni0461
ENCODING 1121
SWIDTH 497 0
DWIDTH 7 0
BBX 7 13 0 -2
BITMAP
00
00
00
00
00
28
44
54
A8
A8
50
00
00
ENDCHAR

STARTCHAR afii10146
ENCODING 1122
SWIDTH 497 0
DWIDTH 7 0
BBX 7 13 0 -2
BITMAP
00
00
20
78
20
20
38
44
44
44
78
00
00
ENDCHAR

STARTCHAR afii10194
ENCODING 1123
SWIDTH 497 0
DWIDTH 7 0
BBX 7 13 0 -2
BITMAP
00
00
00
20
20
78
20
38
44
44
78
00
00
ENDCHAR

STARTCHAR uni0464
ENCODING 1124
SWIDTH 497 0
DWIDTH 7 0
BBX 7 13 0 -2
BITMAP
00
00
4C
52
50
50
7C
A0
A0
A4
98
00
00
ENDCHAR

STARTCHAR uni0465
ENCODING 1125
SWIDTH 497 0
DWIDTH 7 0
BBX 7 13 0 -2
BITMAP
00
00
00
00
00
4C
52
78
A0
A4
98
00
00
ENDCHAR

STARTCHAR uni046E
ENCODING 1134
SWIDTH 497 0
DWIDTH 7 0
BBX 7 13 0 -2
BITMAP
24
18
00
3C
42
02
1C
04
04
04
78
80
78
ENDCHAR

STARTCHAR uni046F
ENCODING 1135
SWIDTH 497 0
DWIDTH 7 0
BBX 7 13 0 -2
BITMAP
00
00
24
18
00
3C
42
38
04
04
78
80
78
ENDCHAR

STARTCHAR uni0470
ENCODING 1136
SWIDTH 497 0
DWIDTH 7 0
BBX 7 13 0 -2
BITMAP
00
00
54
54
54
A8
A8
A8
70
20
20
00
00
ENDCHAR

STARTCHAR uni0471
ENCODING 1137
SWIDTH 497 0
DWIDTH 7 0
BBX 7 13 0 -2
BITMAP
00
00
00
00
00
54
54
54
A8
A8
70
20
20
ENDCHAR

STARTCHAR afii10147
ENCODING 1138
SWIDTH 497 0
DWIDTH 7 0
BBX 7 13 0 -2
BITMAP
00
00
3C
42
42
42
7C
84
84
84
78
00
00
ENDCHAR

STARTCHAR afii10195
ENCODING 1139
SWIDTH 497 0
DWIDTH 7 0
BBX 7 13 0 -2
BITMAP
00
00
00
00
00
3C
42
7C
84
84
78
00
00
ENDCHAR

STARTCHAR afii10148
ENCODING 1140
SWIDTH 497 0
DWIDTH 7 0
BBX 7 13 0 -2
BITMAP
00
00
84
88
88
90
50
60
40
40
40
00
00
ENDCHAR

STARTCHAR afii10196
ENCODING 1141
SWIDTH 497 0
DWIDTH 7 0
BBX 7 13 0 -2
BITMAP
00
00
00
00
00
44
48
50
50
50
20
00
00
ENDCHAR

STARTCHAR uni0476
ENCODING 1142
SWIDTH 497 0
DWIDTH 7 0
BBX 7 13 0 -2
BITMAP
90
48
00
84
88
90
90
A0
A0
40
40
00
00
ENDCHAR

STARTCHAR uni0477
ENCODING 1143
SWIDTH 497 0
DWIDTH 7 0
BBX 7 13 0 -2
BITMAP
00
00
48
24
00
44
48
50
50
50
20
00
00
ENDCHAR

STARTCHAR uni0478
ENCODING 1144
SWIDTH 497 0
DWIDTH 7 0
BBX 7 13 0 -2
BITMAP
00
00
20
50
50
50
5A
AA
B4
B4
48
08
10
ENDCHAR

STARTCHAR uni0479
ENCODING 1145
SWIDTH 497 0
DWIDTH 7 0
BBX 7 13 0 -2
BITMAP
00
00
00
00
00
00
2A
5A
B4
B4
48
08
10
ENDCHAR

STARTCHAR uni047A
ENCODING 1146
SWIDTH 497 0
DWIDTH 7 0
BBX 7 13 0 -2
BITMAP
00
10
38
44
44
44
44
88
88
88
70
20
00
ENDCHAR

STARTCHAR uni047B
ENCODING 1147
SWIDTH 497 0
DWIDTH 7 0
BBX 7 13 0 -2
BITMAP
00
00
00
00
10
38
44
44
88
88
70
00
00
ENDCHAR

STARTCHAR uni047C
ENCODING 1148
SWIDTH 497 0
DWIDTH 7 0
BBX 7 13 0 -2
BITMAP
08
10
00
24
42
42
42
84
84
B4
48
00
00
ENDCHAR

STARTCHAR uni047D
ENCODING 1149
SWIDTH 497 0
DWIDTH 7 0
BBX 7 13 0 -2
BITMAP
00
00
08
10
00
28
44
54
A8
A8
50
00
00
ENDCHAR

STARTCHAR uni047E
ENCODING 1150
SWIDTH 497 0
DWIDTH 7 0
BBX 7 13 0 -2
BITMAP
00
3C
00
24
42
42
42
84
84
B4
48
00
00
ENDCHAR

STARTCHAR uni047F
ENCODING 1151
SWIDTH 497 0
DWIDTH 7 0
BBX 7 13 0 -2
BITMAP
00
00
00
38
00
28
44
54
A8
A8
50
00
00
ENDCHAR

STARTCHAR afii10050
ENCODING 1168
SWIDTH 497 0
DWIDTH 7 0
BBX 7 13 0 -2
BITMAP
02
02
7E
40
40
40
40
80
80
80
80
00
00
ENDCHAR

STARTCHAR afii10098
ENCODING 1169
SWIDTH 497 0
DWIDTH 7 0
BBX 7 13 0 -2
BITMAP
00
00
00
02
02
7E
40
40
80
80
80
00
00
ENDCHAR

STARTCHAR uni0E01
ENCODING 3585
SWIDTH 497 0
DWIDTH 7 0
BBX 7 13 0 -2
BITMAP
00
00
00
00
00
78
84
44
88
88
88
00
00
ENDCHAR

STARTCHAR uni0E02
ENCODING 3586
SWIDTH 497 0
DWIDTH 7 0
BBX 7 13 0 -2
BITMAP
00
00
00
00
00
74
74
14
E8
88
70
00
00
ENDCHAR

STARTCHAR uni0E03
ENCODING 3587
SWIDTH 497 0
DWIDTH 7 0
BBX 7 13 0 -2
BITMAP
00
00
00
00
00
94
F4
14
E8
88
70
00
00
ENDCHAR

STARTCHAR uni0E04
ENCODING 3588
SWIDTH 497 0
DWIDTH 7 0
BBX 7 13 0 -2
BITMAP
00
00
00
00
00
38
44
F4
F4
C8
48
00
00
ENDCHAR

STARTCHAR uni0E05
ENCODING 3589
SWIDTH 497 0
DWIDTH 7 0
BBX 7 13 0 -2
BITMAP
00
00
00
00
00
28
54
F4
F4
C8
48
00
00
ENDCHAR

STARTCHAR uni0E06
ENCODING 3590
SWIDTH 497 0
DWIDTH 7 0
BBX 7 13 0 -2
BITMAP
00
00
00
00
00
54
74
24
48
E8
D0
00
00
ENDCHAR

STARTCHAR uni0E07
ENCODING 3591
SWIDTH 497 0
DWIDTH 7 0
BBX 7 13 0 -2
BITMAP
00
00
00
00
00
0C
0C
84
48
48
30
00
00
ENDCHAR

STARTCHAR uni0E08
ENCODING 3592
SWIDTH 497 0
DWIDTH 7 0
BBX 7 13 0 -2
BITMAP
00
00
00
00
00
78
84
64
68
28
30
00
00
ENDCHAR

STARTCHAR uni0E09
ENCODING 3593
SWIDTH 497 0
DWIDTH 7 0
BBX 7 13 0 -2
BITMAP
00
00
00
00
00
78
04
64
28
5C
6C
00
00
ENDCHAR

STARTCHAR uni0E0A
ENCODING 3594
SWIDTH 497 0
DWIDTH 7 0
BBX 7 13 0 -2
BITMAP
00
00
00
00
04
64
68
24
C8
88
70
00
00
ENDCHAR

STARTCHAR uni0E0B
ENCODING 3595
SWIDTH 497 0
DWIDTH 7 0
BBX 7 13 0 -2
BITMAP
00
00
00
00
04
A4
E8
44
88
88
70
00
00
ENDCHAR

STARTCHAR uni0E0C
ENCODING 3596
SWIDTH 497 0
DWIDTH 7 0
BBX 7 13 0 -2
BITMAP
00
00
00
00
00
32
4A
6A
94
BC
F4
00
00
ENDCHAR

STARTCHAR uni0E0D
ENCODING 3597
SWIDTH 497 0
DWIDTH 7 0
BBX 7 13 0 -2
BITMAP
00
00
00
00
00
32
4A
6A
9C
D0
DC
00
00
ENDCHAR

STARTCHAR uni0E0E
ENCODING 3598
SWIDTH 497 0
DWIDTH 7 0
BBX 7 13 0 -2
BITMAP
00
00
00
00
00
38
44
24
48
C8
D8
70
90
ENDCHAR

STARTCHAR uni0E0F
ENCODING 3599
SWIDTH 497 0
DWIDTH 7 0
BBX 7 13 0 -2
BITMAP
00
00
00
00
00
38
44
24
48
C8
D8
A8
50
ENDCHAR

STARTCHAR uni0E10
ENCODING 3600
SWIDTH 497 0
DWIDTH 7 0
BBX 7 13 0 -2
BITMAP
00
00
00
00
00
3C
40
30
68
68
18
50
B0
ENDCHAR

STARTCHAR uni0E11
ENCODING 3601
SWIDTH 497 0
DWIDTH 7 0
BBX 7 13 0 -2
BITMAP
00
00
00
00
00
A8
F4
64
C8
88
88
00
00
ENDCHAR

STARTCHAR uni0E12
ENCODING 3602
SWIDTH 497 0
DWIDTH 7 0
BBX 7 13 0 -2
BITMAP
00
00
00
00
00
4A
7A
4A
B4
FC
D4
00
00
ENDCHAR

STARTCHAR uni0E13
ENCODING 3603
SWIDTH 497 0
DWIDTH 7 0
BBX 7 13 0 -2
BITMAP
00
00
00
00
00
32
4A
6A
94
DE
D6
00
00
ENDCHAR

STARTCHAR uni0E14
ENCODING 3604
SWIDTH 497 0
DWIDTH 7 0
BBX 7 13 0 -2
BITMAP
00
00
00
00
00
38
44
64
E8
A8
48
00
00
ENDCHAR

STARTCHAR uni0E15
ENCODING 3605
SWIDTH 497 0
DWIDTH 7 0
BBX 7 13 0 -2
BITMAP
00
00
00
00
00
28
54
64
E8
A8
68
00
00
ENDCHAR

STARTCHAR uni0E16
ENCODING 3606
SWIDTH 497 0
DWIDTH 7 0
BBX 7 13 0 -2
BITMAP
00
00
00
00
00
78
84
44
88
C8
C8
00
00
ENDCHAR

STARTCHAR uni0E17
ENCODING 3607
SWIDTH 497 0
DWIDTH 7 0
BBX 7 13 0 -2
BITMAP
00
00
00
00
00
C8
D4
64
C8
88
88
00
00
ENDCHAR

STARTCHAR uni0E18
ENCODING 3608
SWIDTH 497 0
DWIDTH 7 0
BBX 7 13 0 -2
BITMAP
00
00
00
00
00
3C
40
30
48
48
30
00
00
ENDCHAR

STARTCHAR uni0E19
ENCODING 3609
SWIDTH 497 0
DWIDTH 7 0
BBX 7 13 0 -2
BITMAP
00
00
00
00
00
64
64
24
C8
9C
6C
00
00
ENDCHAR

STARTCHAR uni0E1A
ENCODING 3610
SWIDTH 497 0
DWIDTH 7 0
BBX 7 13 0 -2
BITMAP
00
00
00
00
00
C4
C4
44
88
88
70
00
00
ENDCHAR

STARTCHAR uni0E1B
ENCODING 3611
SWIDTH 497 0
DWIDTH 7 0
BBX 7 13 0 -2
BITMAP
00
00
00
02
02
C4
C4
44
88
88
70
00
00
ENDCHAR

STARTCHAR uni0E1C
ENCODING 3612
SWIDTH 497 0
DWIDTH 7 0
BBX 7 13 0 -2
BITMAP
00
00
00
00
00
64
64
44
A8
A8
50
00
00
ENDCHAR

STARTCHAR uni0E1D
ENCODING 3613
SWIDTH 497 0
DWIDTH 7 0
BBX 7 13 0 -2
BITMAP
00
00
00
02
02
64
64
44
A8
A8
50
00
00
ENDCHAR

STARTCHAR uni0E1E
ENCODING 3614
SWIDTH 497 0
DWIDTH 7 0
BBX 7 13 0 -2
BITMAP
00
00
00
00
00
D4
D4
54
A8
A8
50
00
00
ENDCHAR

STARTCHAR uni0E1F
ENCODING 3615
SWIDTH 497 0
DWIDTH 7 0
BBX 7 13 0 -2
BITMAP
00
00
00
02
02
D4
D4
54
A8
A8
50
00
00
ENDCHAR

STARTCHAR uni0E20
ENCODING 3616
SWIDTH 497 0
DWIDTH 7 0
BBX 7 13 0 -2
BITMAP
00
00
00
00
00
38
44
24
48
C8
C8
00
00
ENDCHAR

STARTCHAR uni0E21
ENCODING 3617
SWIDTH 497 0
DWIDTH 7 0
BBX 7 13 0 -2
BITMAP
00
00
00
00
00
64
64
24
48
E8
D0
00
00
ENDCHAR

STARTCHAR uni0E22
ENCODING 3618
SWIDTH 497 0
DWIDTH 7 0
BBX 7 13 0 -2
BITMAP
00
00
00
00
00
64
64
44
68
88
70
00
00
ENDCHAR

STARTCHAR uni0E23
ENCODING 3619
SWIDTH 497 0
DWIDTH 7 0
BBX 7 13 0 -2
BITMAP
00
00
00
00
00
3C
40
70
08
30
30
00
00
ENDCHAR

STARTCHAR uni0E24
ENCODING 3620
SWIDTH 497 0
DWIDTH 7 0
BBX 7 13 0 -2
BITMAP
00
00
00
00
00
38
44
24
48
68
68
10
10
ENDCHAR

STARTCHAR uni0E25
ENCODING 3621
SWIDTH 497 0
DWIDTH 7 0
BBX 7 13 0 -2
BITMAP
00
00
00
00
00
38
44
34
48
68
68
00
00
ENDCHAR

STARTCHAR uni0E26
ENCODING 3622
SWIDTH 497 0
DWIDTH 7 0
BBX 7 13 0 -2
BITMAP
00
00
00
00
00
38
44
24
48
C8
C8
10
10
ENDCHAR

STARTCHAR uni0E27
ENCODING 3623
SWIDTH 497 0
DWIDTH 7 0
BBX 7 13 0 -2
BITMAP
00
00
00
00
00
38
44
04
08
18
18
00
00
ENDCHAR

STARTCHAR uni0E28
ENCODING 3624
SWIDTH 497 0
DWIDTH 7 0
BBX 7 13 0 -2
BITMAP
00
00
00
02
02
3C
44
74
F4
E8
68
00
00
ENDCHAR

STARTCHAR uni0E29
ENCODING 3625
SWIDTH 497 0
DWIDTH 7 0
BBX 7 13 0 -2
BITMAP
00
00
00
00
00
C4
C4
64
B8
88
70
00
00
ENDCHAR

STARTCHAR uni0E2A
ENCODING 3626
SWIDTH 497 0
DWIDTH 7 0
BBX 7 13 0 -2
BITMAP
00
00
00
02
02
7C
84
74
88
C8
C8
00
00
ENDCHAR

STARTCHAR uni0E2B
ENCODING 3627
SWIDTH 497 0
DWIDTH 7 0
BBX 7 13 0 -2
BITMAP
00
00
00
00
00
CC
CC
58
A8
C8
88
00
00
ENDCHAR

STARTCHAR uni0E2C
ENCODING 3628
SWIDTH 497 0
DWIDTH 7 0
BBX 7 13 0 -2
BITMAP
00
00
00
04
04
D8
C4
54
A8
A8
50
00
00
ENDCHAR

STARTCHAR uni0E2D
ENCODING 3629
SWIDTH 497 0
DWIDTH 7 0
BBX 7 13 0 -2
BITMAP
00
00
00
00
00
78
84
64
E8
88
70
00
00
ENDCHAR

STARTCHAR uni0E2E
ENCODING 3630
SWIDTH 497 0
DWIDTH 7 0
BBX 7 13 0 -2
BITMAP
00
00
00
02
02
7C
F4
64
E8
88
70
00
00
ENDCHAR

STARTCHAR uni0E2F
ENCODING 3631
SWIDTH 497 0
DWIDTH 7 0
BBX 7 13 0 -2
BITMAP
00
00
00
00
00
6C
74
04
08
08
30
00
00
ENDCHAR

STARTCHAR uni0E30
ENCODING 3632
SWIDTH 497 0
DWIDTH 7 0
BBX 7 13 0 -2
BITMAP
00
00
00
00
00
00
34
38
00
68
70
00
00
ENDCHAR

STARTCHAR uni0E31
ENCODING 3633
SWIDTH 497 0
DWIDTH 7 0
BBX 7 13 0 -2
BITMAP
00
00
20
3E
00
00
00
00
00
00
00
00
00
ENDCHAR

STARTCHAR uni0E32
ENCODING 3634
SWIDTH 497 0
DWIDTH 7 0
BBX 7 13 0 -2
BITMAP
00
00
00
00
00
38
44
04
08
08
08
00
00
ENDCHAR

STARTCHAR uni0E33
ENCODING 3635
SWIDTH 497 0
DWIDTH 7 0
BBX 7 13 0 -2
BITMAP
00
00
00
C0
C0
38
44
04
08
08
08
00
00
ENDCHAR

STARTCHAR uni0E34
ENCODING 3636
SWIDTH 497 0
DWIDTH 7 0
BBX 7 13 0 -2
BITMAP
00
00
00
7E
00
00
00
00
00
00
00
00
00
ENDCHAR

STARTCHAR uni0E35
ENCODING 3637
SWIDTH 497 0
DWIDTH 7 0
BBX 7 13 0 -2
BITMAP
00
00
02
7E
00
00
00
00
00
00
00
00
00
ENDCHAR

STARTCHAR uni0E36
ENCODING 3638
SWIDTH 497 0
DWIDTH 7 0
BBX 7 13 0 -2
BITMAP
00
00
06
7E
00
00
00
00
00
00
00
00
00
ENDCHAR

STARTCHAR uni0E37
ENCODING 3639
SWIDTH 497 0
DWIDTH 7 0
BBX 7 13 0 -2
BITMAP
00
00
0A
7E
00
00
00
00
00
00
00
00
00
ENDCHAR

STARTCHAR uni0E38
ENCODING 3640
SWIDTH 497 0
DWIDTH 7 0
BBX 7 13 0 -2
BITMAP
00
00
00
00
00
00
00
00
00
00
00
18
08
ENDCHAR

STARTCHAR uni0E39
ENCODING 3641
SWIDTH 497 0
DWIDTH 7 0
BBX 7 13 0 -2
BITMAP
00
00
00
00
00
00
00
00
00
00
00
68
38
ENDCHAR

STARTCHAR uni0E3A
ENCODING 3642
SWIDTH 497 0
DWIDTH 7 0
BBX 7 13 0 -2
BITMAP
00
00
00
00
00
00
00
00
00
00
00
30
30
ENDCHAR

STARTCHAR uni0E3F
ENCODING 3647
SWIDTH 497 0
DWIDTH 7 0
BBX 7 13 0 -2
BITMAP
00
00
00
08
78
54
54
78
A8
A8
F0
40
00
ENDCHAR

STARTCHAR uni0E40
ENCODING 3648
SWIDTH 497 0
DWIDTH 7 0
BBX 7 13 0 -2
BITMAP
00
00
00
00
00
10
10
10
20
30
30
00
00
ENDCHAR

STARTCHAR uni0E41
ENCODING 3649
SWIDTH 497 0
DWIDTH 7 0
BBX 7 13 0 -2
BITMAP
00
00
00
00
00
24
24
24
48
6C
6C
00
00
ENDCHAR

STARTCHAR uni0E42
ENCODING 3650
SWIDTH 497 0
DWIDTH 7 0
BBX 7 13 0 -2
BITMAP
00
00
00
7C
80
F0
10
10
20
30
30
00
00
ENDCHAR

STARTCHAR uni0E43
ENCODING 3651
SWIDTH 497 0
DWIDTH 7 0
BBX 7 13 0 -2
BITMAP
00
00
00
38
44
A8
68
08
10
18
18
00
00
ENDCHAR

STARTCHAR uni0E44
ENCODING 3652
SWIDTH 497 0
DWIDTH 7 0
BBX 7 13 0 -2
BITMAP
00
00
00
6C
14
08
08
08
10
18
18
00
00
ENDCHAR

STARTCHAR uni0E45
ENCODING 3653
SWIDTH 497 0
DWIDTH 7 0
BBX 7 13 0 -2
BITMAP
00
00
00
00
00
38
44
04
08
08
08
10
10
ENDCHAR

STARTCHAR uni0E46
ENCODING 3654
SWIDTH 497 0
DWIDTH 7 0
BBX 7 13 0 -2
BITMAP
00
00
00
00
00
74
6C
04
08
08
08
10
60
ENDCHAR

STARTCHAR uni0E47
ENCODING 3655
SWIDTH 497 0
DWIDTH 7 0
BBX 7 13 0 -2
BITMAP
02
3C
54
2C
00
00
00
00
00
00
00
00
00
ENDCHAR

STARTCHAR uni0E48
ENCODING 3656
SWIDTH 497 0
DWIDTH 7 0
BBX 7 13 0 -2
BITMAP
02
02
00
00
00
00
00
00
00
00
00
00
00
ENDCHAR

STARTCHAR uni0E49
ENCODING 3657
SWIDTH 497 0
DWIDTH 7 0
BBX 7 13 0 -2
BITMAP
1A
0C
00
00
00
00
00
00
00
00
00
00
00
ENDCHAR

STARTCHAR uni0E4A
ENCODING 3658
SWIDTH 497 0
DWIDTH 7 0
BBX 7 13 0 -2
BITMAP
2A
3C
00
00
00
00
00
00
00
00
00
00
00
ENDCHAR

STARTCHAR uni0E4B
ENCODING 3659
SWIDTH 497 0
DWIDTH 7 0
BBX 7 13 0 -2
BITMAP
04
0E
04
00
00
00
00
00
00
00
00
00
00
ENDCHAR

STARTCHAR uni0E4C
ENCODING 3660
SWIDTH 497 0
DWIDTH 7 0
BBX 7 13 0 -2
BITMAP
06
04
00
00
00
00
00
00
00
00
00
00
00
ENDCHAR

STARTCHAR uni0E4D
ENCODING 3661
SWIDTH 497 0
DWIDTH 7 0
BBX 7 13 0 -2
BITMAP
06
06
00
00
00
00
00
00
00
00
00
00
00
ENDCHAR

STARTCHAR uni0E4E
ENCODING 3662
SWIDTH 497 0
DWIDTH 7 0
BBX 7 13 0 -2
BITMAP
0E
08
10
18
00
00
00
00
00
00
00
00
00
ENDCHAR

STARTCHAR uni0E4F
ENCODING 3663
SWIDTH 497 0
DWIDTH 7 0
BBX 7 13 0 -2
BITMAP
00
00
00
00
00
00
38
44
A8
88
70
00
00
ENDCHAR

STARTCHAR uni0E50
ENCODING 3664
SWIDTH 497 0
DWIDTH 7 0
BBX 7 13 0 -2
BITMAP
00
00
00
00
00
00
38
44
88
88
70
00
00
ENDCHAR

STARTCHAR uni0E51
ENCODING 3665
SWIDTH 497 0
DWIDTH 7 0
BBX 7 13 0 -2
BITMAP
00
00
00
00
00
00
38
54
74
08
70
00
00
ENDCHAR

STARTCHAR uni0E52
ENCODING 3666
SWIDTH 497 0
DWIDTH 7 0
BBX 7 13 0 -2
BITMAP
00
00
00
00
20
20
54
5C
B8
88
70
00
00
ENDCHAR

STARTCHAR uni0E53
ENCODING 3667
SWIDTH 497 0
DWIDTH 7 0
BBX 7 13 0 -2
BITMAP
00
00
00
00
00
00
28
54
84
C8
C8
00
00
ENDCHAR

STARTCHAR uni0E54
ENCODING 3668
SWIDTH 497 0
DWIDTH 7 0
BBX 7 13 0 -2
BITMAP
00
00
00
00
04
04
38
40
B0
B0
78
00
00
ENDCHAR

STARTCHAR uni0E55
ENCODING 3669
SWIDTH 497 0
DWIDTH 7 0
BBX 7 13 0 -2
BITMAP
00
00
00
00
04
34
38
40
B0
B0
78
00
00
ENDCHAR

STARTCHAR uni0E56
ENCODING 3670
SWIDTH 497 0
DWIDTH 7 0
BBX 7 13 0 -2
BITMAP
00
00
00
00
00
40
28
14
04
68
70
00
00
ENDCHAR

STARTCHAR uni0E57
ENCODING 3671
SWIDTH 497 0
DWIDTH 7 0
BBX 7 13 0 -2
BITMAP
00
00
00
00
02
02
54
74
A8
A8
D0
00
00
ENDCHAR

STARTCHAR uni0E58
ENCODING 3672
SWIDTH 497 0
DWIDTH 7 0
BBX 7 13 0 -2
BITMAP
00
00
00
00
00
04
38
40
98
E8
50
00
00
ENDCHAR

STARTCHAR uni0E59
ENCODING 3673
SWIDTH 497 0
DWIDTH 7 0
BBX 7 13 0 -2
BITMAP
00
00
00
00
04
04
18
70
A0
D0
C8
00
00
ENDCHAR

STARTCHAR uni0E5A
ENCODING 3674
SWIDTH 497 0
DWIDTH 7 0
BBX 7 13 0 -2
BITMAP
00
00
00
00
00
54
74
14
28
28
D0
00
00
ENDCHAR

STARTCHAR uni0E5B
ENCODING 3675
SWIDTH 497 0
DWIDTH 7 0
BBX 7 13 0 -2
BITMAP
00
00
00
00
00
60
60
54
B8
A0
40
00
00
ENDCHAR

STARTCHAR uni1E02
ENCODING 7682
SWIDTH 497 0
DWIDTH 7 0
BBX 7 13 0 -2
BITMAP
00
18
00
7C
22
22
3C
44
44
44
F8
00
00
ENDCHAR

STARTCHAR uni1E03
ENCODING 7683
SWIDTH 497 0
DWIDTH 7 0
BBX 7 13 0 -2
BITMAP
00
0C
40
40
40
5C
62
42
84
C4
B8
00
00
ENDCHAR

STARTCHAR uni1E0A
ENCODING 7690
SWIDTH 497 0
DWIDTH 7 0
BBX 7 13 0 -2
BITMAP
00
18
00
7C
22
22
22
44
44
44
F8
00
00
ENDCHAR

STARTCHAR uni1E0B
ENCODING 7691
SWIDTH 497 0
DWIDTH 7 0
BBX 7 13 0 -2
BITMAP
00
30
02
02
02
3A
44
84
84
8C
74
00
00
ENDCHAR

STARTCHAR uni1E0C
ENCODING 7692
SWIDTH 497 0
DWIDTH 7 0
BBX 7 13 0 -2
BITMAP
00
00
7C
22
22
22
22
44
44
44
F8
00
30
ENDCHAR

STARTCHAR uni1E0D
ENCODING 7693
SWIDTH 497 0
DWIDTH 7 0
BBX 7 13 0 -2
BITMAP
00
00
02
02
02
3A
44
84
84
8C
74
00
30
ENDCHAR

STARTCHAR uni1E0E
ENCODING 7694
SWIDTH 497 0
DWIDTH 7 0
BBX 7 13 0 -2
BITMAP
00
00
7C
22
22
22
22
44
44
44
F8
00
78
ENDCHAR

STARTCHAR uni1E0F
ENCODING 7695
SWIDTH 497 0
DWIDTH 7 0
BBX 7 13 0 -2
BITMAP
00
00
02
02
02
3A
44
84
84
8C
74
00
78
ENDCHAR

STARTCHAR uni1E1E
ENCODING 7710
SWIDTH 497 0
DWIDTH 7 0
BBX 7 13 0 -2
BITMAP
00
18
00
7E
40
40
78
80
80
80
80
00
00
ENDCHAR

STARTCHAR uni1E1F
ENCODING 7711
SWIDTH 497 0
DWIDTH 7 0
BBX 7 13 0 -2
BITMAP
00
18
00
1C
22
20
20
F0
20
40
40
00
00
ENDCHAR

STARTCHAR uni1E22
ENCODING 7714
SWIDTH 497 0
DWIDTH 7 0
BBX 7 13 0 -2
BITMAP
00
18
00
42
42
42
7C
84
84
84
84
00
00
ENDCHAR

STARTCHAR uni1E23
ENCODING 7715
SWIDTH 497 0
DWIDTH 7 0
BBX 7 13 0 -2
BITMAP
00
0C
40
40
40
5C
62
42
84
84
84
00
00
ENDCHAR

STARTCHAR uni1E24
ENCODING 7716
SWIDTH 497 0
DWIDTH 7 0
BBX 7 13 0 -2
BITMAP
00
00
42
42
42
42
7E
42
84
84
84
00
30
ENDCHAR

STARTCHAR uni1E25
ENCODING 7717
SWIDTH 497 0
DWIDTH 7 0
BBX 7 13 0 -2
BITMAP
00
00
40
40
40
5C
62
42
84
84
84
00
30
ENDCHAR

STARTCHAR uni1E40
ENCODING 7744
SWIDTH 497 0
DWIDTH 7 0
BBX 7 13 0 -2
BITMAP
00
18
00
42
66
66
5A
B4
84
84
84
00
00
ENDCHAR

STARTCHAR uni1E41
ENCODING 7745
SWIDTH 497 0
DWIDTH 7 0
BBX 7 13 0 -2
BITMAP
00
00
00
30
00
68
54
54
A8
A8
88
00
00
ENDCHAR

STARTCHAR uni1E42
ENCODING 7746
SWIDTH 497 0
DWIDTH 7 0
BBX 7 13 0 -2
BITMAP
00
00
42
66
66
5A
5A
84
84
84
84
00
30
ENDCHAR

STARTCHAR uni1E43
ENCODING 7747
SWIDTH 497 0
DWIDTH 7 0
BBX 7 13 0 -2
BITMAP
00
00
00
00
00
68
54
54
A8
A8
88
00
60
ENDCHAR

STARTCHAR uni1E44
ENCODING 7748
SWIDTH 497 0
DWIDTH 7 0
BBX 7 13 0 -2
BITMAP
00
18
00
42
42
62
52
94
8C
84
84
00
00
ENDCHAR

STARTCHAR uni1E45
ENCODING 7749
SWIDTH 497 0
DWIDTH 7 0
BBX 7 13 0 -2
BITMAP
00
00
00
18
00
5C
62
42
84
84
84
00
00
ENDCHAR

STARTCHAR uni1E46
ENCODING 7750
SWIDTH 497 0
DWIDTH 7 0
BBX 7 13 0 -2
BITMAP
00
00
42
42
62
52
4A
8C
84
84
84
00
30
ENDCHAR

STARTCHAR uni1E47
ENCODING 7751
SWIDTH 497 0
DWIDTH 7 0
BBX 7 13 0 -2
BITMAP
00
00
00
00
00
5C
62
42
84
84
84
00
30
ENDCHAR

STARTCHAR uni1E56
ENCODING 7766
SWIDTH 497 0
DWIDTH 7 0
BBX 7 13 0 -2
BITMAP
00
18
00
7C
42
42
42
7C
80
80
80
00
00
ENDCHAR

STARTCHAR uni1E57
ENCODING 7767
SWIDTH 497 0
DWIDTH 7 0
BBX 7 13 0 -2
BITMAP
00
00
00
18
00
5C
62
84
C4
B8
80
80
80
ENDCHAR

STARTCHAR uni1E58
ENCODING 7768
SWIDTH 497 0
DWIDTH 7 0
BBX 7 13 0 -2
BITMAP
00
18
00
7C
42
42
7C
A0
90
88
84
00
00
ENDCHAR

STARTCHAR uni1E59
ENCODING 7769
SWIDTH 497 0
DWIDTH 7 0
BBX 7 13 0 -2
BITMAP
00
00
00
30
00
B8
44
40
80
80
80
00
00
ENDCHAR

STARTCHAR uni1E60
ENCODING 7776
SWIDTH 497 0
DWIDTH 7 0
BBX 7 13 0 -2
BITMAP
00
18
00
3C
42
40
38
04
04
84
78
00
00
ENDCHAR

STARTCHAR uni1E61
ENCODING 7777
SWIDTH 497 0
DWIDTH 7 0
BBX 7 13 0 -2
BITMAP
00
00
00
18
00
3C
42
20
18
84
78
00
00
ENDCHAR

STARTCHAR uni1E62
ENCODING 7778
SWIDTH 497 0
DWIDTH 7 0
BBX 7 13 0 -2
BITMAP
00
00
3C
42
40
40
38
04
04
84
78
00
30
ENDCHAR

STARTCHAR uni1E63
ENCODING 7779
SWIDTH 497 0
DWIDTH 7 0
BBX 7 13 0 -2
BITMAP
00
00
00
00
00
3C
42
20
18
84
78
00
30
ENDCHAR

STARTCHAR uni1E6A
ENCODING 7786
SWIDTH 497 0
DWIDTH 7 0
BBX 7 13 0 -2
BITMAP
00
30
00
7C
10
10
10
20
20
20
20
00
00
ENDCHAR

STARTCHAR uni1E6B
ENCODING 7787
SWIDTH 497 0
DWIDTH 7 0
BBX 7 13 0 -2
BITMAP
00
30
00
20
20
78
20
40
40
44
38
00
00
ENDCHAR

STARTCHAR Wgrave
ENCODING 7808
SWIDTH 497 0
DWIDTH 7 0
BBX 7 13 0 -2
BITMAP
00
10
08
42
42
42
5A
B4
CC
CC
84
00
00
ENDCHAR

STARTCHAR wgrave
ENCODING 7809
SWIDTH 497 0
DWIDTH 7 0
BBX 7 13 0 -2
BITMAP
00
00
20
10
00
44
44
54
A8
A8
50
00
00
ENDCHAR

STARTCHAR Wacute
ENCODING 7810
SWIDTH 497 0
DWIDTH 7 0
BBX 7 13 0 -2
BITMAP
00
08
10
42
42
42
5A
B4
CC
CC
84
00
00
ENDCHAR

STARTCHAR wacute
ENCODING 7811
SWIDTH 497 0
DWIDTH 7 0
BBX 7 13 0 -2
BITMAP
00
00
08
10
00
44
44
54
A8
A8
50
00
00
ENDCHAR

STARTCHAR Wdieresis
ENCODING 7812
SWIDTH 497 0
DWIDTH 7 0
BBX 7 13 0 -2
BITMAP
00
24
00
42
42
42
5A
B4
CC
CC
84
00
00
ENDCHAR

STARTCHAR wdieresis
ENCODING 7813
SWIDTH 497 0
DWIDTH 7 0
BBX 7 13 0 -2
BITMAP
00
00
00
28
00
44
44
54
A8
A8
50
00
00
ENDCHAR

STARTCHAR Ygrave
ENCODING 7922
SWIDTH 497 0
DWIDTH 7 0
BBX 7 13 0 -2
BITMAP
00
20
10
00
44
44
28
10
10
20
20
00
00
ENDCHAR

STARTCHAR ygrave
ENCODING 7923
SWIDTH 497 0
DWIDTH 7 0
BBX 7 13 0 -2
BITMAP
00
00
10
08
00
42
42
84
8C
74
04
84
78
ENDCHAR

STARTCHAR uni2000
ENCODING 8192
SWIDTH 497 0
DWIDTH 7 0
BBX 7 13 0 -2
BITMAP
00
00
00
00
00
00
00
00
00
00
00
00
00
ENDCHAR

STARTCHAR uni2001
ENCODING 8193
SWIDTH 497 0
DWIDTH 7 0
BBX 7 13 0 -2
BITMAP
00
00
00
00
00
00
00
00
00
00
00
00
00
ENDCHAR

STARTCHAR uni2002
ENCODING 8194
SWIDTH 497 0
DWIDTH 7 0
BBX 7 13 0 -2
BITMAP
00
00
00
00
00
00
00
00
00
00
00
00
00
ENDCHAR

STARTCHAR uni2003
ENCODING 8195
SWIDTH 497 0
DWIDTH 7 0
BBX 7 13 0 -2
BITMAP
00
00
00
00
00
00
00
00
00
00
00
00
00
ENDCHAR

STARTCHAR uni2004
ENCODING 8196
SWIDTH 497 0
DWIDTH 7 0
BBX 7 13 0 -2
BITMAP
00
00
00
00
00
00
00
00
00
00
00
00
00
ENDCHAR

STARTCHAR uni2005
ENCODING 8197
SWIDTH 497 0
DWIDTH 7 0
BBX 7 13 0 -2
BITMAP
00
00
00
00
00
00
00
00
00
00
00
00
00
ENDCHAR

STARTCHAR uni2006
ENCODING 8198
SWIDTH 497 0
DWIDTH 7 0
BBX 7 13 0 -2
BITMAP
00
00
00
00
00
00
00
00
00
00
00
00
00
ENDCHAR

STARTCHAR uni2007
ENCODING 8199
SWIDTH 497 0
DWIDTH 7 0
BBX 7 13 0 -2
BITMAP
00
00
00
00
00
00
00
00
00
00
00
00
00
ENDCHAR

STARTCHAR uni2008
ENCODING 8200
SWIDTH 497 0
DWIDTH 7 0
BBX 7 13 0 -2
BITMAP
00
00
00
00
00
00
00
00
00
00
00
00
00
ENDCHAR

STARTCHAR uni2009
ENCODING 8201
SWIDTH 497 0
DWIDTH 7 0
BBX 7 13 0 -2
BITMAP
00
00
00
00
00
00
00
00
00
00
00
00
00
ENDCHAR

STARTCHAR uni200A
ENCODING 8202
SWIDTH 497 0
DWIDTH 7 0
BBX 7 13 0 -2
BITMAP
00
00
00
00
00
00
00
00
00
00
00
00
00
ENDCHAR

STARTCHAR uni2010
ENCODING 8208
SWIDTH 497 0
DWIDTH 7 0
BBX 7 13 0 -2
BITMAP
00
00
00
00
00
00
78
00
00
00
00
00
00
ENDCHAR

STARTCHAR uni2011
ENCODING 8209
SWIDTH 497 0
DWIDTH 7 0
BBX 7 13 0 -2
BITMAP
00
00
00
00
00
00
78
00
00
00
00
00
00
ENDCHAR

STARTCHAR figuredash
ENCODING 8210
SWIDTH 497 0
DWIDTH 7 0
BBX 7 13 0 -2
BITMAP
00
00
00
00
00
00
7C
00
00
00
00
00
00
ENDCHAR

STARTCHAR endash
ENCODING 8211
SWIDTH 497 0
DWIDTH 7 0
BBX 7 13 0 -2
BITMAP
00
00
00
00
00
00
FC
00
00
00
00
00
00
ENDCHAR

STARTCHAR emdash
ENCODING 8212
SWIDTH 497 0
DWIDTH 7 0
BBX 7 13 0 -2
BITMAP
00
00
00
00
00
00
FE
00
00
00
00
00
00
ENDCHAR

STARTCHAR afii00208
ENCODING 8213
SWIDTH 497 0
DWIDTH 7 0
BBX 7 13 0 -2
BITMAP
00
00
00
00
00
00
FE
00
00
00
00
00
00
ENDCHAR

STARTCHAR uni2016
ENCODING 8214
SWIDTH 497 0
DWIDTH 7 0
BBX 7 13 0 -2
BITMAP
00
00
28
28
28
28
28
50
50
50
50
00
00
ENDCHAR

STARTCHAR underscoredbl
ENCODING 8215
SWIDTH 497 0
DWIDTH 7 0
BBX 7 13 0 -2
BITMAP
00
00
00
00
00
00
00
00
00
00
FE
00
FE
ENDCHAR

STARTCHAR quoteleft
ENCODING 8216
SWIDTH 497 0
DWIDTH 7 0
BBX 7 13 0 -2
BITMAP
00
08
10
18
18
00
00
00
00
00
00
00
00
ENDCHAR

STARTCHAR quoteright
ENCODING 8217
SWIDTH 497 0
DWIDTH 7 0
BBX 7 13 0 -2
BITMAP
00
18
18
08
10
00
00
00
00
00
00
00
00
ENDCHAR

STARTCHAR quotesinglbase
ENCODING 8218
SWIDTH 497 0
DWIDTH 7 0
BBX 7 13 0 -2
BITMAP
00
00
00
00
00
00
00
00
30
30
10
20
00
ENDCHAR

STARTCHAR quotereversed
ENCODING 8219
SWIDTH 497 0
DWIDTH 7 0
BBX 7 13 0 -2
BITMAP
00
18
18
10
08
00
00
00
00
00
00
00
00
ENDCHAR

STARTCHAR quotedblleft
ENCODING 8220
SWIDTH 497 0
DWIDTH 7 0
BBX 7 13 0 -2
BITMAP
00
24
48
6C
6C
00
00
00
00
00
00
00
00
ENDCHAR

STARTCHAR quotedblright
ENCODING 8221
SWIDTH 497 0
DWIDTH 7 0
BBX 7 13 0 -2
BITMAP
00
6C
6C
24
48
00
00
00
00
00
00
00
00
ENDCHAR

STARTCHAR quotedblbase
ENCODING 8222
SWIDTH 497 0
DWIDTH 7 0
BBX 7 13 0 -2
BITMAP
00
00
00
00
00
00
00
00
6C
6C
24
48
00
ENDCHAR

STARTCHAR uni201F
ENCODING 8223
SWIDTH 497 0
DWIDTH 7 0
BBX 7 13 0 -2
BITMAP
00
6C
6C
48
24
00
00
00
00
00
00
00
00
ENDCHAR

STARTCHAR dagger
ENCODING 8224
SWIDTH 497 0
DWIDTH 7 0
BBX 7 13 0 -2
BITMAP
00
00
10
10
7C
10
10
20
20
20
20
00
00
ENDCHAR

STARTCHAR daggerdbl
ENCODING 8225
SWIDTH 497 0
DWIDTH 7 0
BBX 7 13 0 -2
BITMAP
00
00
10
10
7C
10
10
20
F8
20
20
00
00
ENDCHAR

STARTCHAR bullet
ENCODING 8226
SWIDTH 497 0
DWIDTH 7 0
BBX 7 13 0 -2
BITMAP
00
00
00
00
00
38
7C
F8
F8
70
00
00
00
ENDCHAR

STARTCHAR uni2023
ENCODING 8227
SWIDTH 497 0
DWIDTH 7 0
BBX 7 13 0 -2
BITMAP
00
00
00
20
30
38
3C
70
60
40
00
00
00
ENDCHAR

STARTCHAR onedotenleader
ENCODING 8228
SWIDTH 497 0
DWIDTH 7 0
BBX 7 13 0 -2
BITMAP
00
00
00
00
00
00
00
00
00
00
10
00
00
ENDCHAR

STARTCHAR twodotenleader
ENCODING 8229
SWIDTH 497 0
DWIDTH 7 0
BBX 7 13 0 -2
BITMAP
00
00
00
00
00
00
00
00
00
00
48
00
00
ENDCHAR

STARTCHAR ellipsis
ENCODING 8230
SWIDTH 497 0
DWIDTH 7 0
BBX 7 13 0 -2
BITMAP
00
00
00
00
00
00
00
00
00
00
54
00
00
ENDCHAR

STARTCHAR uni2027
ENCODING 8231
SWIDTH 497 0
DWIDTH 7 0
BBX 7 13 0 -2
BITMAP
00
00
00
00
00
00
30
00
00
00
00
00
00
ENDCHAR

STARTCHAR uni202F
ENCODING 8239
SWIDTH 497 0
DWIDTH 7 0
BBX 7 13 0 -2
BITMAP
00
00
00
00
00
00
00
00
00
00
00
00
00
ENDCHAR

STARTCHAR perthousand
ENCODING 8240
SWIDTH 497 0
DWIDTH 7 0
BBX 7 13 0 -2
BITMAP
00
00
22
52
24
08
10
20
54
AA
94
00
00
ENDCHAR

STARTCHAR uni2031
ENCODING 8241
SWIDTH 497 0
DWIDTH 7 0
BBX 7 13 0 -2
BITMAP
00
00
22
52
24
08
10
24
6A
D4
A8
00
00
ENDCHAR

STARTCHAR minute
ENCODING 8242
SWIDTH 497 0
DWIDTH 7 0
BBX 7 13 0 -2
BITMAP
00
10
10
20
00
00
00
00
00
00
00
00
00
ENDCHAR

STARTCHAR second
ENCODING 8243
SWIDTH 497 0
DWIDTH 7 0
BBX 7 13 0 -2
BITMAP
00
24
24
48
00
00
00
00
00
00
00
00
00
ENDCHAR

STARTCHAR uni2034
ENCODING 8244
SWIDTH 497 0
DWIDTH 7 0
BBX 7 13 0 -2
BITMAP
00
54
54
A8
00
00
00
00
00
00
00
00
00
ENDCHAR

STARTCHAR uni2035
ENCODING 8245
SWIDTH 497 0
DWIDTH 7 0
BBX 7 13 0 -2
BITMAP
00
20
20
10
00
00
00
00
00
00
00
00
00
ENDCHAR

STARTCHAR uni2036
ENCODING 8246
SWIDTH 497 0
DWIDTH 7 0
BBX 7 13 0 -2
BITMAP
00
48
48
24
00
00
00
00
00
00
00
00
00
ENDCHAR

STARTCHAR uni2037
ENCODING 8247
SWIDTH 497 0
DWIDTH 7 0
BBX 7 13 0 -2
BITMAP
00
A8
A8
54
00
00
00
00
00
00
00
00
00
ENDCHAR

STARTCHAR uni2038
ENCODING 8248
SWIDTH 497 0
DWIDTH 7 0
BBX 7 13 0 -2
BITMAP
00
00
00
00
00
00
00
00
00
00
00
10
28
ENDCHAR

STARTCHAR guilsinglleft
ENCODING 8249
SWIDTH 497 0
DWIDTH 7 0
BBX 7 13 0 -2
BITMAP
00
00
00
00
04
08
10
20
20
10
08
00
00
ENDCHAR

STARTCHAR guilsinglright
ENCODING 8250
SWIDTH 497 0
DWIDTH 7 0
BBX 7 13 0 -2
BITMAP
00
00
00
00
20
10
08
08
10
20
40
00
00
ENDCHAR

STARTCHAR exclamdbl
ENCODING 8252
SWIDTH 497 0
DWIDTH 7 0
BBX 7 13 0 -2
BITMAP
00
00
28
28
28
28
50
50
50
00
50
00
00
ENDCHAR

STARTCHAR uni203D
ENCODING 8253
SWIDTH 497 0
DWIDTH 7 0
BBX 7 13 0 -2
BITMAP
00
00
78
94
94
14
18
20
20
00
20
00
00
ENDCHAR

STARTCHAR uni203E
ENCODING 8254
SWIDTH 497 0
DWIDTH 7 0
BBX 7 13 0 -2
BITMAP
FE
00
00
00
00
00
00
00
00
00
00
00
00
ENDCHAR

STARTCHAR uni203F
ENCODING 8255
SWIDTH 497 0
DWIDTH 7 0
BBX 7 13 0 -2
BITMAP
00
00
00
00
00
00
00
00
00
00
84
78
00
ENDCHAR

STARTCHAR uni2040
ENCODING 8256
SWIDTH 497 0
DWIDTH 7 0
BBX 7 13 0 -2
BITMAP
00
78
84
00
00
00
00
00
00
00
00
00
00
ENDCHAR

STARTCHAR uni2042
ENCODING 8258
SWIDTH 497 0
DWIDTH 7 0
BBX 7 13 0 -2
BITMAP
00
00
00
00
08
1C
08
00
44
EE
44
00
00
ENDCHAR

STARTCHAR uni2043
ENCODING 8259
SWIDTH 497 0
DWIDTH 7 0
BBX 7 13 0 -2
BITMAP
00
00
00
00
00
00
3C
78
00
00
00
00
00
ENDCHAR

STARTCHAR fraction
ENCODING 8260
SWIDTH 497 0
DWIDTH 7 0
BBX 7 13 0 -2
BITMAP
00
00
04
04
08
10
10
20
40
80
80
00
00
ENDCHAR

STARTCHAR uni2045
ENCODING 8261
SWIDTH 497 0
DWIDTH 7 0
BBX 7 13 0 -2
BITMAP
00
3C
20
20
20
20
3C
40
40
40
40
78
00
ENDCHAR

STARTCHAR uni2046
ENCODING 8262
SWIDTH 497 0
DWIDTH 7 0
BBX 7 13 0 -2
BITMAP
00
3C
04
04
04
04
38
08
08
08
08
78
00
ENDCHAR

STARTCHAR uni2048
ENCODING 8264
SWIDTH 497 0
DWIDTH 7 0
BBX 7 13 0 -2
BITMAP
00
00
64
94
14
24
48
88
88
00
88
00
00
ENDCHAR

STARTCHAR uni2049
ENCODING 8265
SWIDTH 497 0
DWIDTH 7 0
BBX 7 13 0 -2
BITMAP
00
00
4C
52
42
44
88
90
90
00
90
00
00
ENDCHAR

STARTCHAR uni204A
ENCODING 8266
SWIDTH 497 0
DWIDTH 7 0
BBX 7 13 0 -2
BITMAP
00
00
00
00
00
00
7C
08
10
10
10
00
00
ENDCHAR

STARTCHAR uni204B
ENCODING 8267
SWIDTH 497 0
DWIDTH 7 0
BBX 7 13 0 -2
BITMAP
00
00
F8
5C
5C
5C
58
A0
A0
A0
A0
00
00
ENDCHAR

STARTCHAR uni204C
ENCODING 8268
SWIDTH 497 0
DWIDTH 7 0
BBX 7 13 0 -2
BITMAP
00
00
00
00
3E
7A
7A
F4
F4
7C
00
00
00
ENDCHAR

STARTCHAR uni204D
ENCODING 8269
SWIDTH 497 0
DWIDTH 7 0
BBX 7 13 0 -2
BITMAP
00
00
00
00
7C
5E
5E
BC
BC
F8
00
00
00
ENDCHAR

STARTCHAR uni20A8
ENCODING 8360
SWIDTH 497 0
DWIDTH 7 0
BBX 7 13 0 -2
BITMAP
00
00
60
50
50
56
68
A8
A4
A4
B8
00
00
ENDCHAR

STARTCHAR Euro
ENCODING 8364
SWIDTH 497 0
DWIDTH 7 0
BBX 7 13 0 -2
BITMAP
00
00
1C
22
20
78
20
F0
40
44
38
00
00
ENDCHAR

STARTCHAR uni2102
ENCODING 8450
SWIDTH 497 0
DWIDTH 7 0
BBX 7 13 0 -2
BITMAP
00
00
3C
52
50
50
50
A0
A0
A4
78
00
00
ENDCHAR

STARTCHAR uni2103
ENCODING 8451
SWIDTH 497 0
DWIDTH 7 0
BBX 7 13 0 -2
BITMAP
40
A0
40
18
24
20
20
40
40
48
30
00
00
ENDCHAR

STARTCHAR uni2104
ENCODING 8452
SWIDTH 497 0
DWIDTH 7 0
BBX 7 13 0 -2
BITMAP
00
00
08
08
1C
28
28
50
38
10
1C
00
00
ENDCHAR

STARTCHAR uni2109
ENCODING 8457
SWIDTH 497 0
DWIDTH 7 0
BBX 7 13 0 -2
BITMAP
40
A0
40
3C
20
20
38
40
40
40
40
00
00
ENDCHAR

STARTCHAR uni210D
ENCODING 8461
SWIDTH 497 0
DWIDTH 7 0
BBX 7 13 0 -2
BITMAP
00
00
52
52
52
52
5C
A4
A4
A4
A4
00
00
ENDCHAR

STARTCHAR uni210E
ENCODING 8462
SWIDTH 497 0
DWIDTH 7 0
BBX 7 13 0 -2
BITMAP
00
00
10
10
10
20
38
44
44
88
88
00
00
ENDCHAR

STARTCHAR uni210F
ENCODING 8463
SWIDTH 497 0
DWIDTH 7 0
BBX 7 13 0 -2
BITMAP
00
00
10
1C
70
20
38
44
44
88
88
00
00
ENDCHAR

STARTCHAR afii61289
ENCODING 8467
SWIDTH 497 0
DWIDTH 7 0
BBX 7 13 0 -2
BITMAP
00
00
08
14
14
14
28
28
10
30
4C
00
00
ENDCHAR

STARTCHAR afii61352
ENCODING 8470
SWIDTH 497 0
DWIDTH 7 0
BBX 7 13 0 -2
BITMAP
00
00
48
4C
6A
6A
54
90
90
90
90
00
00
ENDCHAR

STARTCHAR uni2119
ENCODING 8473
SWIDTH 497 0
DWIDTH 7 0
BBX 7 13 0 -2
BITMAP
00
00
7C
52
52
52
5C
A0
A0
A0
A0
00
00
ENDCHAR

STARTCHAR uni211A
ENCODING 8474
SWIDTH 497 0
DWIDTH 7 0
BBX 7 13 0 -2
BITMAP
00
00
3C
52
52
52
52
A4
A4
B4
78
04
00
ENDCHAR

STARTCHAR uni211D
ENCODING 8477
SWIDTH 497 0
DWIDTH 7 0
BBX 7 13 0 -2
BITMAP
00
00
7C
52
52
52
5C
A4
A4
A4
A4
00
00
ENDCHAR

STARTCHAR trademark
ENCODING 8482
SWIDTH 497 0
DWIDTH 7 0
BBX 7 13 0 -2
BITMAP
FC
5C
A8
A8
00
00
00
00
00
00
00
00
00
ENDCHAR

STARTCHAR Omega
ENCODING 8486
SWIDTH 497 0
DWIDTH 7 0
BBX 7 13 0 -2
BITMAP
00
00
3C
42
42
42
84
84
48
48
CC
00
00
ENDCHAR

STARTCHAR uni2127
ENCODING 8487
SWIDTH 497 0
DWIDTH 7 0
BBX 7 13 0 -2
BITMAP
00
00
66
24
24
42
42
84
84
84
78
00
00
ENDCHAR

STARTCHAR oneeighth
ENCODING 8539
SWIDTH 497 0
DWIDTH 7 0
BBX 7 13 0 -2
BITMAP
00
20
60
20
40
4C
F2
1C
24
24
18
00
00
ENDCHAR

STARTCHAR threeeighths
ENCODING 8540
SWIDTH 497 0
DWIDTH 7 0
BBX 7 13 0 -2
BITMAP
00
60
10
60
10
2C
D2
1C
24
24
18
00
00
ENDCHAR

STARTCHAR fiveeighths
ENCODING 8541
SWIDTH 497 0
DWIDTH 7 0
BBX 7 13 0 -2
BITMAP
00
70
40
C0
20
2C
D2
1C
24
24
18
00
00
ENDCHAR

STARTCHAR seveneighths
ENCODING 8542
SWIDTH 497 0
DWIDTH 7 0
BBX 7 13 0 -2
BITMAP
00
E0
20
40
40
98
A4
38
48
48
30
00
00
ENDCHAR

STARTCHAR arrowleft
ENCODING 8592
SWIDTH 497 0
DWIDTH 7 0
BBX 7 13 0 -2
BITMAP
00
00
00
00
20
40
FE
80
40
00
00
00
00
ENDCHAR

STARTCHAR arrowup
ENCODING 8593
SWIDTH 497 0
DWIDTH 7 0
BBX 7 13 0 -2
BITMAP
00
00
10
38
54
10
10
20
20
20
20
00
00
ENDCHAR

STARTCHAR arrowright
ENCODING 8594
SWIDTH 497 0
DWIDTH 7 0
BBX 7 13 0 -2
BITMAP
00
00
00
00
08
04
FE
08
10
00
00
00
00
ENDCHAR

STARTCHAR arrowdown
ENCODING 8595
SWIDTH 497 0
DWIDTH 7 0
BBX 7 13 0 -2
BITMAP
00
00
08
08
08
08
08
10
54
38
10
00
00
ENDCHAR

STARTCHAR arrowboth
ENCODING 8596
SWIDTH 497 0
DWIDTH 7 0
BBX 7 13 0 -2
BITMAP
00
00
00
00
28
44
FE
88
50
00
00
00
00
ENDCHAR

STARTCHAR arrowupdn
ENCODING 8597
SWIDTH 497 0
DWIDTH 7 0
BBX 7 13 0 -2
BITMAP
00
00
00
10
38
54
10
20
A8
70
20
00
00
ENDCHAR

STARTCHAR minus
ENCODING 8722
SWIDTH 497 0
DWIDTH 7 0
BBX 7 13 0 -2
BITMAP
00
00
00
00
00
00
7C
00
00
00
00
00
00
ENDCHAR

STARTCHAR notequal
ENCODING 8800
SWIDTH 497 0
DWIDTH 7 0
BBX 7 13 0 -2
BITMAP
00
00
00
02
04
7E
10
20
FC
40
80
00
00
ENDCHAR

STARTCHAR lessequal
ENCODING 8804
SWIDTH 497 0
DWIDTH 7 0
BBX 7 13 0 -2
BITMAP
00
00
00
00
06
18
60
10
0C
00
FC
00
00
ENDCHAR

STARTCHAR greaterequal
ENCODING 8805
SWIDTH 497 0
DWIDTH 7 0
BBX 7 13 0 -2
BITMAP
00
00
00
00
60
18
06
38
C0
00
FC
00
00
ENDCHAR

STARTCHAR uni2408
ENCODING 9224
SWIDTH 497 0
DWIDTH 7 0
BBX 7 13 0 -2
BITMAP
00
00
60
50
60
A0
CC
10
08
08
30
00
00
ENDCHAR

STARTCHAR uni2409
ENCODING 9225
SWIDTH 497 0
DWIDTH 7 0
BBX 7 13 0 -2
BITMAP
00
00
50
50
60
A0
AE
04
04
08
08
00
00
ENDCHAR

STARTCHAR uni240A
ENCODING 9226
SWIDTH 497 0
DWIDTH 7 0
BBX 7 13 0 -2
BITMAP
00
00
40
40
40
80
EE
08
0C
10
10
00
00
ENDCHAR

STARTCHAR uni240B
ENCODING 9227
SWIDTH 497 0
DWIDTH 7 0
BBX 7 13 0 -2
BITMAP
00
00
90
90
A0
A0
5C
08
08
10
10
00
00
ENDCHAR

STARTCHAR uni240C
ENCODING 9228
SWIDTH 497 0
DWIDTH 7 0
BBX 7 13 0 -2
BITMAP
00
00
38
20
30
40
5C
10
18
20
20
00
00
ENDCHAR

STARTCHAR uni240D
ENCODING 9229
SWIDTH 497 0
DWIDTH 7 0
BBX 7 13 0 -2
BITMAP
00
00
30
40
80
80
6C
0A
0C
14
14
00
00
ENDCHAR

STARTCHAR uni2424
ENCODING 9252
SWIDTH 497 0
DWIDTH 7 0
BBX 7 13 0 -2
BITMAP
00
00
48
68
50
90
98
08
08
10
1C
00
00
ENDCHAR

STARTCHAR uni2669
ENCODING 9833
SWIDTH 497 0
DWIDTH 7 0
BBX 7 13 0 -2
BITMAP
00
00
04
04
04
04
08
38
78
78
30
00
00
ENDCHAR

STARTCHAR musicalnote
ENCODING 9834
SWIDTH 497 0
DWIDTH 7 0
BBX 7 13 0 -2
BITMAP
00
00
0C
0A
08
08
10
70
F0
F0
60
00
00
ENDCHAR

STARTCHAR ff
ENCODING 64256
SWIDTH 497 0
DWIDTH 7 0
BBX 7 13 0 -2
BITMAP
00
00
24
5A
48
48
FC
48
90
90
90
00
00
ENDCHAR

STARTCHAR fi
ENCODING 64257
SWIDTH 497 0
DWIDTH 7 0
BBX 7 13 0 -2
BITMAP
00
00
18
24
20
24
7C
24
48
48
48
00
00
ENDCHAR

STARTCHAR fl
ENCODING 64258
SWIDTH 497 0
DWIDTH 7 0
BBX 7 13 0 -2
BITMAP
00
00
1C
24
24
24
7C
24
48
48
48
00
00
ENDCHAR

STARTCHAR ffi
ENCODING 64259
SWIDTH 497 0
DWIDTH 7 0
BBX 7 13 0 -2
BITMAP
00
00
28
54
50
54
FC
54
A8
A8
A8
00
00
ENDCHAR

STARTCHAR ffl
ENCODING 64260
SWIDTH 497 0
DWIDTH 7 0
BBX 7 13 0 -2
BITMAP
00
00
2C
54
54
54
FC
54
A8
A8
A8
00
00
ENDCHAR

STARTCHAR uniFB05
ENCODING 64261
SWIDTH 497 0
DWIDTH 7 0
BBX 7 13 0 -2
BITMAP
00
00
30
48
48
48
FC
48
90
94
88
00
00
ENDCHAR

STARTCHAR uniFB06
ENCODING 64262
SWIDTH 497 0
DWIDTH 7 0
BBX 7 13 0 -2
BITMAP
00
00
0C
14
14
36
44
48
28
28
C4
00
00
ENDCHAR

STARTCHAR uniFE20
ENCODING 65056
SWIDTH 497 0
DWIDTH 7 0
BBX 7 13 0 -2
BITMAP
0E
30
00
00
00
00
00
00
00
00
00
00
00
ENDCHAR

STARTCHAR uniFE21
ENCODING 65057
SWIDTH 497 0
DWIDTH 7 0
BBX 7 13 0 -2
BITMAP
F8
06
00
00
00
00
00
00
00
00
00
00
00
ENDCHAR

STARTCHAR uniFE22
ENCODING 65058
SWIDTH 497 0
DWIDTH 7 0
BBX 7 13 0 -2
BITMAP
1E
20
00
00
00
00
00
00
00
00
00
00
00
ENDCHAR

STARTCHAR uniFE23
ENCODING 65059
SWIDTH 497 0
DWIDTH 7 0
BBX 7 13 0 -2
BITMAP
82
7C
00
00
00
00
00
00
00
00
00
00
00
ENDCHAR

STARTCHAR uniFFFD
ENCODING 65533
SWIDTH 497 0
DWIDTH 7 0
BBX 7 13 0 -2
BITMAP
00
00
38
6C
54
74
6C
D8
F8
D8
70
00
00
ENDCHAR
ENDFONT
